<?xml version="1.0" encoding="utf-8"?>
<!-- Generator: Adobe Illustrator 15.1.0, SVG Export Plug-In . SVG Version: 6.00 Build 0)  -->
<!DOCTYPE svg PUBLIC "-//W3C//DTD SVG 1.1//EN" "http://www.w3.org/Graphics/SVG/1.1/DTD/svg11.dtd">
<svg version="1.1" xmlns="http://www.w3.org/2000/svg" xmlns:xlink="http://www.w3.org/1999/xlink" x="0px" y="0px"
	 width="170.389px" height="170.389px" viewBox="0 0 170.389 170.389" enable-background="new 0 0 170.389 170.389"
	 xml:space="preserve">
<g id="Calque_3" display="none">
	<linearGradient id="SVGID_1_" gradientUnits="userSpaceOnUse" x1="0" y1="86.2749" x2="170.3887" y2="86.2749">
		<stop  offset="0" style="stop-color:#81C99C"/>
		<stop  offset="0.3014" style="stop-color:#7EAE90"/>
		<stop  offset="0.9652" style="stop-color:#777678"/>
		<stop  offset="1" style="stop-color:#777377"/>
	</linearGradient>
	
		<rect y="1.081" display="inline" fill="url(#SVGID_1_)" stroke="#231F20" stroke-width="2" stroke-miterlimit="10" width="170.389" height="170.389"/>
</g>
<g id="Calque_1">
	<g>
		<circle fill="#010101" cx="85.188" cy="85.25" r="81.69"/>
		<g>
			<path fill="#FAAF42" stroke="#FAAF42" stroke-miterlimit="10" d="M16.634,72.878l0.912-3.774l0.575,0.14l-0.09,0.375
				c-0.061,0.254-0.08,0.439-0.055,0.559c0.025,0.118,0.087,0.219,0.184,0.302c0.097,0.084,0.256,0.151,0.477,0.205l5.052,1.222
				c0.763,0.184,1.329,0.456,1.7,0.813c0.37,0.359,0.628,0.852,0.774,1.479c0.146,0.626,0.128,1.316-0.054,2.069
				c-0.243,1.004-0.696,1.749-1.36,2.233c-0.664,0.485-1.338,0.646-2.023,0.479c-0.343-0.083-0.588-0.228-0.737-0.432
				c-0.148-0.206-0.194-0.429-0.136-0.669c0.045-0.188,0.152-0.329,0.319-0.42c0.167-0.093,0.36-0.112,0.58-0.059
				c0.064,0.016,0.189,0.065,0.377,0.151c0.195,0.092,0.334,0.147,0.416,0.167c0.338,0.083,0.688-0.021,1.05-0.311
				c0.363-0.289,0.612-0.716,0.749-1.281c0.113-0.467,0.114-0.91,0.002-1.33c-0.111-0.421-0.297-0.75-0.56-0.984
				c-0.262-0.236-0.679-0.423-1.25-0.561l-4.997-1.208c-0.34-0.082-0.575-0.11-0.706-0.084c-0.13,0.025-0.238,0.091-0.325,0.194
				c-0.085,0.104-0.167,0.313-0.243,0.629l-0.057,0.233L16.634,72.878z"/>
			<path fill="#FAAF42" stroke="#FAAF42" stroke-miterlimit="10" d="M18.21,66.723l1.569-3.59l0.542,0.236l-0.104,0.24
				c-0.129,0.293-0.191,0.515-0.19,0.663c0,0.117,0.042,0.223,0.125,0.316c0.083,0.096,0.28,0.21,0.592,0.347l4.062,1.774
				c0.724,0.316,1.301,0.461,1.728,0.435c0.429-0.027,0.853-0.199,1.273-0.516c0.421-0.315,0.741-0.725,0.96-1.227
				c0.221-0.506,0.304-1.042,0.248-1.605c-0.057-0.564-0.22-1.014-0.49-1.349c-0.269-0.335-0.782-0.667-1.536-0.996l-3.906-1.707
				c-0.286-0.126-0.505-0.187-0.656-0.184c-0.15,0.003-0.283,0.05-0.395,0.141c-0.112,0.091-0.223,0.262-0.332,0.51l-0.114,0.26
				l-0.542-0.237l1.36-3.11l0.542,0.236l-0.093,0.213c-0.153,0.352-0.194,0.621-0.12,0.809c0.072,0.188,0.289,0.36,0.649,0.518
				l4.154,1.816c0.758,0.331,1.326,0.754,1.704,1.268c0.378,0.515,0.592,1.116,0.643,1.805s-0.086,1.403-0.411,2.146
				c-0.307,0.701-0.738,1.278-1.294,1.728c-0.555,0.45-1.118,0.713-1.687,0.789c-0.57,0.077-1.195-0.033-1.876-0.331l-4.418-1.931
				c-0.287-0.126-0.499-0.187-0.637-0.184c-0.139,0.003-0.256,0.044-0.353,0.124c-0.097,0.079-0.201,0.245-0.312,0.498l-0.145,0.334
				L18.21,66.723z"/>
			<path fill="#FAAF42" stroke="#FAAF42" stroke-miterlimit="10" d="M23.822,54.717l3.004-4.286c0.57-0.814,1.084-1.372,1.539-1.674
				c0.456-0.303,0.917-0.457,1.384-0.464c0.467-0.008,0.905,0.132,1.313,0.418c0.419,0.294,0.714,0.665,0.887,1.111
				c0.172,0.446,0.207,0.941,0.105,1.484c-0.102,0.543-0.387,1.157-0.857,1.844l4.139-0.377c0.34-0.028,0.555-0.052,0.644-0.072
				c0.217-0.056,0.41-0.138,0.579-0.247c0.168-0.11,0.32-0.261,0.453-0.451l0.104-0.148l0.485,0.34l-1.326,1.892l-5.985,0.358
				l-0.749,1.067l2.483,1.741c0.276,0.193,0.456,0.306,0.54,0.333c0.161,0.049,0.303,0.043,0.425-0.017
				c0.122-0.06,0.282-0.229,0.48-0.512l0.15-0.215l0.484,0.341l-2.228,3.179l-0.486-0.34l0.201-0.286
				c0.15-0.215,0.238-0.367,0.262-0.46s0.023-0.19-0.004-0.295c-0.027-0.105-0.084-0.206-0.171-0.303
				c-0.037-0.037-0.227-0.181-0.57-0.427l-5.272-3.695c-0.234-0.164-0.419-0.257-0.554-0.281c-0.135-0.023-0.254-0.008-0.359,0.046
				c-0.105,0.054-0.231,0.186-0.378,0.396l-0.238,0.34L23.822,54.717z M25.962,53.003l3.031,2.124l1.199-1.711
				c0.407-0.58,0.658-1.012,0.753-1.295c0.142-0.398,0.157-0.78,0.045-1.146c-0.111-0.365-0.357-0.682-0.738-0.948
				c-0.323-0.227-0.644-0.349-0.963-0.364c-0.319-0.017-0.618,0.058-0.896,0.221c-0.277,0.164-0.585,0.484-0.918,0.962
				L25.962,53.003z"/>
			<path fill="#FAAF42" stroke="#FAAF42" stroke-miterlimit="10" d="M33.687,42.354l0.849-0.832l8.009,3.665
				c0.399,0.188,0.703,0.272,0.909,0.259c0.206-0.015,0.403-0.116,0.595-0.303l0.115-0.111l0.414,0.423l-2.579,2.525l-0.415-0.423
				c0.077-0.088,0.154-0.171,0.234-0.25c0.167-0.162,0.26-0.286,0.279-0.37c0.037-0.162,0.008-0.293-0.087-0.39
				c-0.069-0.07-0.287-0.195-0.653-0.376l-1.813-0.891l-2.625,2.571l0.924,2.074c0.097,0.216,0.174,0.354,0.233,0.414
				c0.065,0.067,0.141,0.109,0.227,0.123c0.086,0.015,0.172,0.004,0.259-0.032s0.2-0.121,0.339-0.257
				c0.094-0.092,0.171-0.164,0.233-0.219l0.415,0.423L37.384,52.5l-0.415-0.424c0.201-0.196,0.326-0.356,0.377-0.482
				c0.05-0.125,0.066-0.263,0.048-0.413c-0.018-0.149-0.108-0.415-0.271-0.795L33.687,42.354z M36.62,47.178l2.237-2.191
				l-4.075-1.93L36.62,47.178z"/>
			<path fill="#FAAF42" stroke="#FAAF42" stroke-miterlimit="10" d="M43.971,34.451l-0.291-0.516l3.154-1.779
				c1.443-0.814,2.5-1.294,3.17-1.439c0.984-0.216,1.938-0.119,2.859,0.289c1.017,0.452,1.811,1.183,2.381,2.194
				c0.389,0.688,0.606,1.407,0.656,2.16c0.049,0.752-0.059,1.439-0.319,2.062c-0.214,0.521-0.555,0.995-1.024,1.425
				s-0.979,0.799-1.528,1.108l-4.515,2.547l-0.291-0.515l0.367-0.208l0.124-0.062c0.155-0.088,0.267-0.191,0.331-0.308
				c0.064-0.118,0.089-0.24,0.073-0.366c-0.015-0.094-0.101-0.282-0.261-0.565l-3.232-5.729c-0.184-0.325-0.322-0.523-0.419-0.595
				c-0.132-0.095-0.276-0.129-0.435-0.105C44.682,34.068,44.414,34.201,43.971,34.451z M50.441,40.548l1.915-1.08
				c0.19-0.106,0.487-0.317,0.892-0.632c0.405-0.315,0.676-0.573,0.813-0.775c0.201-0.296,0.344-0.673,0.432-1.13
				c0.088-0.458,0.08-0.942-0.021-1.455c-0.103-0.512-0.312-1.047-0.625-1.604c-0.313-0.554-0.654-0.992-1.023-1.318
				c-0.371-0.326-0.791-0.569-1.258-0.732c-0.469-0.164-0.924-0.231-1.369-0.205c-0.445,0.027-0.896,0.14-1.352,0.338
				c-0.244,0.11-0.639,0.319-1.184,0.627l-1.3,0.733L50.441,40.548z"/>
			<path fill="#FAAF42" stroke="#FAAF42" stroke-miterlimit="10" d="M60.391,25.728c0.876-0.304,1.736-0.374,2.584-0.209
				c0.918,0.175,1.703,0.541,2.357,1.101c0.652,0.56,1.14,1.303,1.459,2.227c0.496,1.43,0.441,2.754-0.164,3.974
				c-0.604,1.22-1.615,2.075-3.036,2.567c-1.587,0.55-3.029,0.442-4.331-0.321c-1.063-0.622-1.807-1.548-2.232-2.778
				c-0.316-0.915-0.389-1.809-0.213-2.684c0.174-0.873,0.58-1.657,1.218-2.35C58.67,26.56,59.456,26.051,60.391,25.728z
				 M60.637,26.447c-0.715,0.249-1.276,0.62-1.68,1.116c-0.404,0.495-0.654,1.105-0.75,1.83s0.014,1.54,0.327,2.445
				c0.3,0.867,0.707,1.549,1.222,2.045c0.513,0.495,1.082,0.814,1.707,0.956c0.624,0.143,1.258,0.102,1.9-0.12
				c0.638-0.222,1.148-0.574,1.53-1.058c0.383-0.482,0.618-1.116,0.707-1.9c0.087-0.784-0.011-1.588-0.296-2.409
				c-0.289-0.835-0.714-1.543-1.275-2.125c-0.481-0.499-0.998-0.813-1.551-0.94C61.926,26.161,61.313,26.214,60.637,26.447z"/>
			<path fill="#FAAF42" stroke="#FAAF42" stroke-miterlimit="10" d="M67.725,23.684l3.867-0.722l0.107,0.582l-0.355,0.067
				c-0.277,0.052-0.468,0.113-0.573,0.187c-0.104,0.072-0.174,0.162-0.208,0.271c-0.034,0.107-0.027,0.287,0.02,0.538l1.258,6.744
				c0.059,0.31,0.105,0.492,0.14,0.548c0.044,0.078,0.118,0.126,0.22,0.146c0.072,0.015,0.268-0.007,0.587-0.066l0.536-0.1
				c0.615-0.115,1.131-0.302,1.553-0.56c0.42-0.258,0.764-0.582,1.03-0.974c0.268-0.392,0.492-0.944,0.675-1.657l0.675,0.089
				l-0.55,3.236l-7.176,1.341l-0.109-0.583l0.316-0.059c0.305-0.057,0.504-0.12,0.6-0.191c0.095-0.07,0.16-0.17,0.195-0.298
				c0.035-0.129,0.026-0.336-0.027-0.623l-1.227-6.577c-0.063-0.335-0.131-0.555-0.205-0.659s-0.166-0.172-0.274-0.201
				c-0.109-0.03-0.325-0.016-0.649,0.045l-0.314,0.059L67.725,23.684z"/>
			<path fill="#FAAF42" stroke="#FAAF42" stroke-miterlimit="10" d="M82.992,21.533c0.926-0.037,1.77,0.146,2.534,0.549
				c0.828,0.433,1.473,1.013,1.936,1.737s0.713,1.576,0.752,2.553c0.059,1.512-0.375,2.765-1.307,3.756
				c-0.932,0.992-2.149,1.518-3.653,1.576c-1.676,0.067-3.026-0.453-4.051-1.562c-0.836-0.903-1.281-2.006-1.332-3.307
				c-0.038-0.967,0.152-1.844,0.574-2.63c0.42-0.785,1.036-1.418,1.848-1.896C81.104,21.831,82.003,21.571,82.992,21.533z
				 M83.019,22.294c-0.757,0.029-1.401,0.223-1.931,0.58c-0.531,0.358-0.947,0.87-1.249,1.535c-0.302,0.666-0.435,1.478-0.396,2.437
				c0.035,0.915,0.228,1.686,0.576,2.309c0.348,0.623,0.8,1.094,1.356,1.411c0.558,0.316,1.175,0.462,1.854,0.435
				c0.675-0.026,1.266-0.215,1.771-0.566c0.506-0.353,0.915-0.891,1.227-1.616c0.311-0.725,0.449-1.521,0.416-2.391
				c-0.035-0.883-0.236-1.684-0.605-2.403c-0.316-0.618-0.721-1.067-1.212-1.35C84.334,22.392,83.732,22.266,83.019,22.294z"/>
			<path fill="#FAAF42" stroke="#FAAF42" stroke-miterlimit="10" d="M90.28,21.739l3.871,0.308l-0.049,0.59l-0.297-0.022
				c-0.279-0.022-0.486-0.001-0.617,0.064c-0.133,0.064-0.232,0.165-0.301,0.3c-0.07,0.134-0.119,0.401-0.152,0.802L92.233,30.1
				c-0.025,0.317-0.012,0.547,0.041,0.686c0.051,0.139,0.133,0.243,0.24,0.313c0.109,0.07,0.311,0.116,0.605,0.14l0.297,0.023
				l-0.047,0.591L89.5,31.544l0.047-0.591l0.318,0.026c0.285,0.021,0.49,0.006,0.613-0.047c0.123-0.054,0.215-0.139,0.279-0.254
				c0.063-0.115,0.107-0.344,0.133-0.686l0.516-6.467c0.029-0.363,0.021-0.609-0.021-0.738c-0.043-0.13-0.121-0.229-0.236-0.297
				c-0.113-0.068-0.313-0.113-0.598-0.136l-0.318-0.025L90.28,21.739z"/>
			<path fill="#FAAF42" stroke="#FAAF42" stroke-miterlimit="10" d="M102.94,23.463l0.516,0.098l0.201,3.123l-0.701,0.069
				c-0.26-0.915-0.693-1.679-1.297-2.29c-0.496-0.509-1.092-0.829-1.785-0.96c-0.418-0.078-0.809-0.076-1.168,0.006
				c-0.361,0.083-0.646,0.224-0.855,0.423c-0.211,0.199-0.338,0.419-0.383,0.658c-0.041,0.217-0.016,0.439,0.074,0.666
				c0.09,0.228,0.252,0.442,0.484,0.646c0.234,0.204,0.633,0.447,1.197,0.73l1.764,0.886c0.215,0.107,0.523,0.295,0.926,0.562
				c0.4,0.268,0.703,0.526,0.906,0.778c0.205,0.251,0.348,0.538,0.43,0.863c0.082,0.324,0.09,0.659,0.025,1.006
				c-0.145,0.767-0.617,1.373-1.418,1.818c-0.803,0.445-1.754,0.564-2.854,0.357c-0.566-0.107-1.059-0.282-1.477-0.525
				c-0.418-0.244-0.85-0.618-1.291-1.122l-0.502,0.859l-0.502-0.094l-0.01-3.597l0.689-0.007c0.121,0.688,0.342,1.294,0.66,1.817
				c0.318,0.524,0.701,0.946,1.145,1.268c0.445,0.32,0.922,0.527,1.426,0.623c0.686,0.129,1.324,0.041,1.914-0.265
				c0.492-0.256,0.781-0.613,0.867-1.07c0.08-0.421-0.01-0.794-0.27-1.12c-0.264-0.327-0.779-0.683-1.545-1.065l-1.693-0.836
				c-0.947-0.469-1.584-0.962-1.912-1.479c-0.326-0.517-0.438-1.058-0.33-1.626c0.084-0.443,0.295-0.828,0.633-1.155
				c0.338-0.325,0.807-0.563,1.406-0.714c0.602-0.149,1.229-0.163,1.887-0.04c0.553,0.104,1.064,0.297,1.535,0.576
				c0.332,0.196,0.625,0.443,0.881,0.739L102.94,23.463z"/>
			<path fill="#FAAF42" stroke="#FAAF42" stroke-miterlimit="10" d="M112.448,25.672l4.586,2.076
				c1.121,0.508,1.867,0.904,2.238,1.19c0.547,0.421,0.916,0.899,1.104,1.437s0.162,1.068-0.076,1.596
				c-0.172,0.379-0.422,0.677-0.746,0.893c-0.326,0.216-0.717,0.35-1.174,0.401c-0.293,0.034-0.66,0.01-1.1-0.07
				c0.459,0.315,0.793,0.596,0.998,0.839c0.311,0.368,0.502,0.777,0.572,1.229c0.072,0.453,0.01,0.898-0.189,1.337
				c-0.191,0.425-0.482,0.768-0.873,1.027c-0.389,0.26-0.844,0.412-1.361,0.458c-0.518,0.047-1.064-0.023-1.643-0.206
				c-0.578-0.184-1.156-0.406-1.736-0.669l-4.832-2.188l0.256-0.563l0.324,0.147c0.313,0.142,0.549,0.191,0.707,0.149
				c0.225-0.055,0.404-0.231,0.539-0.53l2.941-6.495c0.139-0.307,0.207-0.527,0.207-0.662c0-0.136-0.039-0.251-0.117-0.347
				c-0.08-0.096-0.264-0.209-0.553-0.34l-0.326-0.147L112.448,25.672z M112.78,31.621l-1.391,3.069
				c-0.141,0.309-0.209,0.498-0.207,0.568c0,0.098,0.049,0.187,0.145,0.268c0.068,0.059,0.285,0.169,0.648,0.334l0.939,0.426
				c0.932,0.422,1.619,0.672,2.063,0.752c0.443,0.079,0.881,0.021,1.307-0.175c0.43-0.197,0.746-0.523,0.953-0.979
				c0.174-0.384,0.213-0.776,0.119-1.177c-0.092-0.4-0.311-0.758-0.654-1.072s-1.029-0.704-2.057-1.169L112.78,31.621z
				 M114.62,27.552l-1.549,3.426l1.764,0.799c0.826,0.374,1.408,0.592,1.748,0.654c0.529,0.094,0.986,0.053,1.369-0.124
				s0.678-0.492,0.883-0.948c0.174-0.385,0.205-0.757,0.094-1.117c-0.113-0.36-0.338-0.674-0.68-0.941
				c-0.223-0.171-0.725-0.434-1.51-0.789L114.62,27.552z"/>
			<path fill="#FAAF42" stroke="#FAAF42" stroke-miterlimit="10" d="M127.436,33.578l1.018,0.71l-2.211,8.922
				c-0.113,0.446-0.143,0.773-0.088,0.981c0.055,0.209,0.195,0.393,0.424,0.552l0.137,0.096l-0.354,0.507l-3.088-2.156l0.354-0.507
				c0.105,0.063,0.205,0.126,0.301,0.192c0.199,0.14,0.344,0.211,0.434,0.213c0.174,0.008,0.301-0.047,0.383-0.163
				c0.059-0.085,0.146-0.332,0.26-0.743l0.563-2.029l-3.145-2.194l-1.947,1.349c-0.203,0.141-0.33,0.247-0.381,0.318
				c-0.057,0.081-0.082,0.166-0.082,0.257c0.002,0.092,0.029,0.178,0.084,0.26c0.053,0.082,0.162,0.181,0.328,0.297
				c0.111,0.078,0.203,0.144,0.27,0.197l-0.354,0.507l-2.594-1.812l0.354-0.507c0.24,0.168,0.43,0.267,0.568,0.294
				c0.137,0.027,0.281,0.018,0.432-0.03c0.15-0.047,0.406-0.191,0.764-0.431L127.436,33.578z M123.055,37.52l2.68,1.87l1.191-4.552
				L123.055,37.52z"/>
			<path fill="#FAAF42" stroke="#FAAF42" stroke-miterlimit="10" d="M138.905,43.516l0.385,0.39l-1.688,2.796l-0.643-0.358
				c0.322-0.939,0.406-1.851,0.252-2.734c-0.121-0.731-0.439-1.36-0.957-1.886c-0.311-0.316-0.646-0.547-1.004-0.691
				s-0.688-0.192-0.984-0.147c-0.299,0.046-0.539,0.157-0.721,0.336c-0.164,0.162-0.275,0.366-0.334,0.615
				c-0.057,0.249-0.047,0.529,0.031,0.843c0.08,0.314,0.275,0.76,0.59,1.338l0.982,1.81c0.121,0.222,0.275,0.565,0.459,1.033
				s0.289,0.869,0.314,1.207c0.025,0.336-0.023,0.668-0.146,0.995c-0.123,0.326-0.316,0.619-0.578,0.876
				c-0.582,0.572-1.348,0.81-2.299,0.714c-0.951-0.097-1.838-0.562-2.658-1.395c-0.422-0.428-0.738-0.872-0.951-1.329
				c-0.213-0.458-0.359-1.034-0.438-1.73l-0.941,0.438l-0.373-0.379l2.133-3.088l0.596,0.405c-0.307,0.662-0.479,1.313-0.518,1.951
				c-0.041,0.639,0.035,1.227,0.227,1.767c0.189,0.539,0.473,1.001,0.85,1.383c0.51,0.521,1.109,0.824,1.797,0.914
				c0.574,0.074,1.035-0.061,1.381-0.4c0.318-0.313,0.463-0.687,0.436-1.12c-0.031-0.438-0.262-1.049-0.689-1.834l-0.951-1.724
				c-0.531-0.966-0.785-1.769-0.758-2.405s0.256-1.167,0.686-1.59c0.336-0.331,0.746-0.535,1.23-0.613
				c0.482-0.078,1.027-0.004,1.631,0.227c0.604,0.229,1.15,0.592,1.639,1.09c0.412,0.418,0.736,0.887,0.973,1.407
				c0.168,0.367,0.271,0.753,0.314,1.158L138.905,43.516z"/>
			<path fill="#FAAF42" stroke="#FAAF42" stroke-miterlimit="10" d="M142.022,47.048l2.254,3.411L143.76,50.8l-0.16-0.241
				c-0.184-0.278-0.346-0.452-0.486-0.523c-0.141-0.07-0.297-0.083-0.467-0.038c-0.127,0.03-0.307,0.122-0.541,0.275l-3.25,2.148
				l5.604,1.065c0.297,0.052,0.484,0.076,0.559,0.072s0.143-0.025,0.199-0.064c0.076-0.049,0.107-0.123,0.096-0.222
				s-0.098-0.271-0.26-0.515l-0.135-0.202l0.518-0.341l2.086,3.158l-0.516,0.34c-0.16-0.251-0.336-0.46-0.527-0.624
				s-0.371-0.276-0.535-0.338c-0.355-0.135-0.627-0.221-0.809-0.256l-3.912-0.818l-1.693,5.002c-0.152,0.454-0.24,0.79-0.262,1.011
				c-0.023,0.221-0.008,0.423,0.047,0.605c0.053,0.183,0.186,0.435,0.398,0.755l-0.518,0.341l-2.477-3.75l0.514-0.341l0.148,0.222
				c0.164,0.249,0.268,0.393,0.311,0.431c0.064,0.062,0.135,0.097,0.211,0.106s0.141-0.002,0.195-0.038
				c0.105-0.07,0.252-0.376,0.439-0.917l1.311-3.714l-1.867-0.391l-1.639,1.083c-0.283,0.187-0.455,0.343-0.52,0.47
				c-0.063,0.127-0.078,0.268-0.047,0.422c0.027,0.121,0.178,0.389,0.451,0.802l-0.516,0.341l-2.254-3.411l0.516-0.341l0.176,0.266
				c0.176,0.267,0.322,0.431,0.438,0.493c0.115,0.063,0.25,0.082,0.404,0.056s0.385-0.14,0.689-0.341l5.652-3.735
				c0.299-0.198,0.486-0.358,0.561-0.479c0.076-0.123,0.104-0.247,0.084-0.374c-0.02-0.126-0.133-0.349-0.342-0.665l-0.131-0.196
				L142.022,47.048z"/>
			<path fill="#FAAF42" stroke="#FAAF42" stroke-miterlimit="10" d="M148.758,57.8l3.268,7.958l-2.119,1.945l-0.479-0.525
				c0.344-0.322,0.596-0.623,0.754-0.901c0.16-0.278,0.268-0.579,0.326-0.901c0.059-0.323,0.061-0.624,0.01-0.907
				c-0.053-0.282-0.219-0.764-0.498-1.442l-0.975-2.375l-3.477,1.429l0.484,1.182c0.18,0.437,0.387,0.736,0.619,0.9
				c0.236,0.165,0.477,0.245,0.725,0.241c0.186,0,0.477-0.08,0.871-0.242l0.156-0.064l0.283,0.688l-4.166,1.71l-0.281-0.687
				l0.359-0.149c0.318-0.13,0.537-0.248,0.658-0.355c0.119-0.106,0.215-0.252,0.285-0.436c0.072-0.182,0.1-0.358,0.08-0.53
				c-0.016-0.17-0.1-0.439-0.25-0.804l-0.484-1.183l-3.086,1.267c-0.322,0.133-0.51,0.227-0.568,0.287
				c-0.059,0.06-0.088,0.13-0.09,0.214c-0.004,0.083,0.059,0.281,0.188,0.596l0.604,1.469c0.338,0.819,0.695,1.422,1.076,1.805
				c0.379,0.383,0.838,0.669,1.375,0.858c0.422,0.15,0.963,0.236,1.629,0.259l0.045,0.728l-3.424,0.127l-3.393-8.26l0.57-0.235
				l0.115,0.281c0.135,0.328,0.238,0.522,0.313,0.586c0.107,0.098,0.242,0.152,0.398,0.164c0.109,0.01,0.314-0.048,0.617-0.171
				l6.539-2.687c0.299-0.122,0.484-0.234,0.561-0.337c0.076-0.102,0.109-0.239,0.104-0.411c0-0.093-0.1-0.378-0.295-0.854
				L148.758,57.8z"/>
			<path fill="#FAAF42" stroke="#FAAF42" stroke-miterlimit="10" d="M153.594,69.578l0.119,0.518l-0.32,0.15l1.451,6.329
				l0.352-0.018l0.123,0.54l-2.689,1.762l-0.383-0.612c0.711-0.502,1.174-1.007,1.391-1.519c0.219-0.512,0.248-1.11,0.09-1.796
				c-0.064-0.286-0.115-0.453-0.148-0.503c-0.033-0.049-0.08-0.079-0.137-0.089c-0.059-0.01-0.229,0.018-0.51,0.082l-6.943,1.593
				c-0.328,0.075-0.547,0.146-0.652,0.208c-0.107,0.063-0.184,0.138-0.229,0.221c-0.047,0.083-0.07,0.188-0.068,0.314
				s0.047,0.4,0.139,0.82l-0.602,0.139l-0.912-3.978l0.602-0.139c0.105,0.438,0.182,0.702,0.229,0.796
				c0.088,0.161,0.207,0.264,0.359,0.307c0.15,0.043,0.408,0.022,0.768-0.06l7.086-1.626c0.221-0.05,0.352-0.093,0.395-0.126
				c0.043-0.032,0.07-0.083,0.082-0.15c0.012-0.068-0.004-0.197-0.049-0.39c-0.123-0.537-0.289-0.952-0.496-1.244
				c-0.209-0.292-0.506-0.545-0.891-0.758c-0.387-0.212-0.857-0.36-1.416-0.445l0.076-0.718L153.594,69.578z"/>
		</g>
		<g>
			<path opacity="0.75" fill="#F69321" d="M16.634,72.878l0.912-3.774l0.575,0.14l-0.09,0.375c-0.061,0.254-0.08,0.439-0.055,0.559
				c0.025,0.118,0.087,0.219,0.184,0.302c0.097,0.084,0.256,0.151,0.477,0.205l5.052,1.222c0.763,0.184,1.329,0.456,1.7,0.813
				c0.37,0.359,0.628,0.852,0.774,1.479c0.146,0.626,0.128,1.316-0.054,2.069c-0.243,1.004-0.696,1.749-1.36,2.233
				c-0.664,0.485-1.338,0.646-2.023,0.479c-0.343-0.083-0.588-0.228-0.737-0.432c-0.148-0.206-0.194-0.429-0.136-0.669
				c0.045-0.188,0.152-0.329,0.319-0.42c0.167-0.093,0.36-0.112,0.58-0.059c0.064,0.016,0.189,0.065,0.377,0.151
				c0.195,0.092,0.334,0.147,0.416,0.167c0.338,0.083,0.688-0.021,1.05-0.311c0.363-0.289,0.612-0.716,0.749-1.281
				c0.113-0.467,0.114-0.91,0.002-1.33c-0.111-0.421-0.297-0.75-0.56-0.984c-0.262-0.236-0.679-0.423-1.25-0.561l-4.997-1.208
				c-0.34-0.082-0.575-0.11-0.706-0.084c-0.13,0.025-0.238,0.091-0.325,0.194c-0.085,0.104-0.167,0.313-0.243,0.629l-0.057,0.233
				L16.634,72.878z"/>
			<path opacity="0.75" fill="#F69321" d="M18.21,66.723l1.569-3.59l0.542,0.236l-0.104,0.24c-0.129,0.293-0.191,0.515-0.19,0.663
				c0,0.117,0.042,0.223,0.125,0.316c0.083,0.096,0.28,0.21,0.592,0.347l4.062,1.774c0.724,0.316,1.301,0.461,1.728,0.435
				c0.429-0.027,0.853-0.199,1.273-0.516c0.421-0.315,0.741-0.725,0.96-1.227c0.221-0.506,0.304-1.042,0.248-1.605
				c-0.057-0.564-0.22-1.014-0.49-1.349c-0.269-0.335-0.782-0.667-1.536-0.996l-3.906-1.707c-0.286-0.126-0.505-0.187-0.656-0.184
				c-0.15,0.003-0.283,0.05-0.395,0.141c-0.112,0.091-0.223,0.262-0.332,0.51l-0.114,0.26l-0.542-0.237l1.36-3.11l0.542,0.236
				l-0.093,0.213c-0.153,0.352-0.194,0.621-0.12,0.809c0.072,0.188,0.289,0.36,0.649,0.518l4.154,1.816
				c0.758,0.331,1.326,0.754,1.704,1.268c0.378,0.515,0.592,1.116,0.643,1.805s-0.086,1.403-0.411,2.146
				c-0.307,0.701-0.738,1.278-1.294,1.728c-0.555,0.45-1.118,0.713-1.687,0.789c-0.57,0.077-1.195-0.033-1.876-0.331l-4.418-1.931
				c-0.287-0.126-0.499-0.187-0.637-0.184c-0.139,0.003-0.256,0.044-0.353,0.124c-0.097,0.079-0.201,0.245-0.312,0.498l-0.145,0.334
				L18.21,66.723z"/>
			<path opacity="0.75" fill="#F69321" d="M23.822,54.717l3.004-4.286c0.57-0.814,1.084-1.372,1.539-1.674
				c0.456-0.303,0.917-0.457,1.384-0.464c0.467-0.008,0.905,0.132,1.313,0.418c0.419,0.294,0.714,0.665,0.887,1.111
				c0.172,0.446,0.207,0.941,0.105,1.484c-0.102,0.543-0.387,1.157-0.857,1.844l4.139-0.377c0.34-0.028,0.555-0.052,0.644-0.072
				c0.217-0.056,0.41-0.138,0.579-0.247c0.168-0.11,0.32-0.261,0.453-0.451l0.104-0.148l0.485,0.34l-1.326,1.892l-5.985,0.358
				l-0.749,1.067l2.483,1.741c0.276,0.193,0.456,0.306,0.54,0.333c0.161,0.049,0.303,0.043,0.425-0.017
				c0.122-0.06,0.282-0.229,0.48-0.512l0.15-0.215l0.484,0.341l-2.228,3.179l-0.486-0.34l0.201-0.286
				c0.15-0.215,0.238-0.367,0.262-0.46s0.023-0.19-0.004-0.295c-0.027-0.105-0.084-0.206-0.171-0.303
				c-0.037-0.037-0.227-0.181-0.57-0.427l-5.272-3.695c-0.234-0.164-0.419-0.257-0.554-0.281c-0.135-0.023-0.254-0.008-0.359,0.046
				c-0.105,0.054-0.231,0.186-0.378,0.396l-0.238,0.34L23.822,54.717z M25.962,53.003l3.031,2.124l1.199-1.711
				c0.407-0.58,0.658-1.012,0.753-1.295c0.142-0.398,0.157-0.78,0.045-1.146c-0.111-0.365-0.357-0.682-0.738-0.948
				c-0.323-0.227-0.644-0.349-0.963-0.364c-0.319-0.017-0.618,0.058-0.896,0.221c-0.277,0.164-0.585,0.484-0.918,0.962
				L25.962,53.003z"/>
			<path opacity="0.75" fill="#F69321" d="M33.687,42.354l0.849-0.832l8.009,3.665c0.399,0.188,0.703,0.272,0.909,0.259
				c0.206-0.015,0.403-0.116,0.595-0.303l0.115-0.111l0.414,0.423l-2.579,2.525l-0.415-0.423c0.077-0.088,0.154-0.171,0.234-0.25
				c0.167-0.162,0.26-0.286,0.279-0.37c0.037-0.162,0.008-0.293-0.087-0.39c-0.069-0.07-0.287-0.195-0.653-0.376l-1.813-0.891
				l-2.625,2.571l0.924,2.074c0.097,0.216,0.174,0.354,0.233,0.414c0.065,0.067,0.141,0.109,0.227,0.123
				c0.086,0.015,0.172,0.004,0.259-0.032s0.2-0.121,0.339-0.257c0.094-0.092,0.171-0.164,0.233-0.219l0.415,0.423L37.384,52.5
				l-0.415-0.424c0.201-0.196,0.326-0.356,0.377-0.482c0.05-0.125,0.066-0.263,0.048-0.413c-0.018-0.149-0.108-0.415-0.271-0.795
				L33.687,42.354z M36.62,47.178l2.237-2.191l-4.075-1.93L36.62,47.178z"/>
			<path opacity="0.75" fill="#F69321" d="M43.971,34.451l-0.291-0.516l3.154-1.779c1.443-0.814,2.5-1.294,3.17-1.439
				c0.984-0.216,1.938-0.119,2.859,0.289c1.017,0.452,1.811,1.183,2.381,2.194c0.389,0.688,0.606,1.407,0.656,2.16
				c0.049,0.752-0.059,1.439-0.319,2.062c-0.214,0.521-0.555,0.995-1.024,1.425s-0.979,0.799-1.528,1.108l-4.515,2.547l-0.291-0.515
				l0.367-0.208l0.124-0.062c0.155-0.088,0.267-0.191,0.331-0.308c0.064-0.118,0.089-0.24,0.073-0.366
				c-0.015-0.094-0.101-0.282-0.261-0.565l-3.232-5.729c-0.184-0.325-0.322-0.523-0.419-0.595c-0.132-0.095-0.276-0.129-0.435-0.105
				C44.682,34.068,44.414,34.201,43.971,34.451z M50.441,40.548l1.915-1.08c0.19-0.106,0.487-0.317,0.892-0.632
				c0.405-0.315,0.676-0.573,0.813-0.775c0.201-0.296,0.344-0.673,0.432-1.13c0.088-0.458,0.08-0.942-0.021-1.455
				c-0.103-0.512-0.312-1.047-0.625-1.604c-0.313-0.554-0.654-0.992-1.023-1.318c-0.371-0.326-0.791-0.569-1.258-0.732
				c-0.469-0.164-0.924-0.231-1.369-0.205c-0.445,0.027-0.896,0.14-1.352,0.338c-0.244,0.11-0.639,0.319-1.184,0.627l-1.3,0.733
				L50.441,40.548z"/>
			<path opacity="0.75" fill="#F69321" d="M60.391,25.728c0.876-0.304,1.736-0.374,2.584-0.209c0.918,0.175,1.703,0.541,2.357,1.101
				c0.652,0.56,1.14,1.303,1.459,2.227c0.496,1.43,0.441,2.754-0.164,3.974c-0.604,1.22-1.615,2.075-3.036,2.567
				c-1.587,0.55-3.029,0.442-4.331-0.321c-1.063-0.622-1.807-1.548-2.232-2.778c-0.316-0.915-0.389-1.809-0.213-2.684
				c0.174-0.873,0.58-1.657,1.218-2.35C58.67,26.56,59.456,26.051,60.391,25.728z M60.637,26.447
				c-0.715,0.249-1.276,0.62-1.68,1.116c-0.404,0.495-0.654,1.105-0.75,1.83s0.014,1.54,0.327,2.445
				c0.3,0.867,0.707,1.549,1.222,2.045c0.513,0.495,1.082,0.814,1.707,0.956c0.624,0.143,1.258,0.102,1.9-0.12
				c0.638-0.222,1.148-0.574,1.53-1.058c0.383-0.482,0.618-1.116,0.707-1.9c0.087-0.784-0.011-1.588-0.296-2.409
				c-0.289-0.835-0.714-1.543-1.275-2.125c-0.481-0.499-0.998-0.813-1.551-0.94C61.926,26.161,61.313,26.214,60.637,26.447z"/>
			<path opacity="0.75" fill="#F69321" d="M67.725,23.684l3.867-0.722l0.107,0.582l-0.355,0.067
				c-0.277,0.052-0.468,0.113-0.573,0.187c-0.104,0.072-0.174,0.162-0.208,0.271c-0.034,0.107-0.027,0.287,0.02,0.538l1.258,6.744
				c0.059,0.31,0.105,0.492,0.14,0.548c0.044,0.078,0.118,0.126,0.22,0.146c0.072,0.015,0.268-0.007,0.587-0.066l0.536-0.1
				c0.615-0.115,1.131-0.302,1.553-0.56c0.42-0.258,0.764-0.582,1.03-0.974c0.268-0.392,0.492-0.944,0.675-1.657l0.675,0.089
				l-0.55,3.236l-7.176,1.341l-0.109-0.583l0.316-0.059c0.305-0.057,0.504-0.12,0.6-0.191c0.095-0.07,0.16-0.17,0.195-0.298
				c0.035-0.129,0.026-0.336-0.027-0.623l-1.227-6.577c-0.063-0.335-0.131-0.555-0.205-0.659s-0.166-0.172-0.274-0.201
				c-0.109-0.03-0.325-0.016-0.649,0.045l-0.314,0.059L67.725,23.684z"/>
			<path opacity="0.75" fill="#F69321" d="M82.992,21.533c0.926-0.037,1.77,0.146,2.534,0.549c0.828,0.433,1.473,1.013,1.936,1.737
				s0.713,1.576,0.752,2.553c0.059,1.512-0.375,2.765-1.307,3.756c-0.932,0.992-2.149,1.518-3.653,1.576
				c-1.676,0.067-3.026-0.453-4.051-1.562c-0.836-0.903-1.281-2.006-1.332-3.307c-0.038-0.967,0.152-1.844,0.574-2.63
				c0.42-0.785,1.036-1.418,1.848-1.896C81.104,21.831,82.003,21.571,82.992,21.533z M83.019,22.294
				c-0.757,0.029-1.401,0.223-1.931,0.58c-0.531,0.358-0.947,0.87-1.249,1.535c-0.302,0.666-0.435,1.478-0.396,2.437
				c0.035,0.915,0.228,1.686,0.576,2.309c0.348,0.623,0.8,1.094,1.356,1.411c0.558,0.316,1.175,0.462,1.854,0.435
				c0.675-0.026,1.266-0.215,1.771-0.566c0.506-0.353,0.915-0.891,1.227-1.616c0.311-0.725,0.449-1.521,0.416-2.391
				c-0.035-0.883-0.236-1.684-0.605-2.403c-0.316-0.618-0.721-1.067-1.212-1.35C84.334,22.392,83.732,22.266,83.019,22.294z"/>
			<path opacity="0.75" fill="#F69321" d="M90.28,21.739l3.871,0.308l-0.049,0.59l-0.297-0.022
				c-0.279-0.022-0.486-0.001-0.617,0.064c-0.133,0.064-0.232,0.165-0.301,0.3c-0.07,0.134-0.119,0.401-0.152,0.802L92.233,30.1
				c-0.025,0.317-0.012,0.547,0.041,0.686c0.051,0.139,0.133,0.243,0.24,0.313c0.109,0.07,0.311,0.116,0.605,0.14l0.297,0.023
				l-0.047,0.591L89.5,31.544l0.047-0.591l0.318,0.026c0.285,0.021,0.49,0.006,0.613-0.047c0.123-0.054,0.215-0.139,0.279-0.254
				c0.063-0.115,0.107-0.344,0.133-0.686l0.516-6.467c0.029-0.363,0.021-0.609-0.021-0.738c-0.043-0.13-0.121-0.229-0.236-0.297
				c-0.113-0.068-0.313-0.113-0.598-0.136l-0.318-0.025L90.28,21.739z"/>
			<path opacity="0.75" fill="#F69321" d="M102.94,23.463l0.516,0.098l0.201,3.123l-0.701,0.069c-0.26-0.915-0.693-1.679-1.297-2.29
				c-0.496-0.509-1.092-0.829-1.785-0.96c-0.418-0.078-0.809-0.076-1.168,0.006c-0.361,0.083-0.646,0.224-0.855,0.423
				c-0.211,0.199-0.338,0.419-0.383,0.658c-0.041,0.217-0.016,0.439,0.074,0.666c0.09,0.228,0.252,0.442,0.484,0.646
				c0.234,0.204,0.633,0.447,1.197,0.73l1.764,0.886c0.215,0.107,0.523,0.295,0.926,0.562c0.4,0.268,0.703,0.526,0.906,0.778
				c0.205,0.251,0.348,0.538,0.43,0.863c0.082,0.324,0.09,0.659,0.025,1.006c-0.145,0.767-0.617,1.373-1.418,1.818
				c-0.803,0.445-1.754,0.564-2.854,0.357c-0.566-0.107-1.059-0.282-1.477-0.525c-0.418-0.244-0.85-0.618-1.291-1.122l-0.502,0.859
				l-0.502-0.094l-0.01-3.597l0.689-0.007c0.121,0.688,0.342,1.294,0.66,1.817c0.318,0.524,0.701,0.946,1.145,1.268
				c0.445,0.32,0.922,0.527,1.426,0.623c0.686,0.129,1.324,0.041,1.914-0.265c0.492-0.256,0.781-0.613,0.867-1.07
				c0.08-0.421-0.01-0.794-0.27-1.12c-0.264-0.327-0.779-0.683-1.545-1.065l-1.693-0.836c-0.947-0.469-1.584-0.962-1.912-1.479
				c-0.326-0.517-0.438-1.058-0.33-1.626c0.084-0.443,0.295-0.828,0.633-1.155c0.338-0.325,0.807-0.563,1.406-0.714
				c0.602-0.149,1.229-0.163,1.887-0.04c0.553,0.104,1.064,0.297,1.535,0.576c0.332,0.196,0.625,0.443,0.881,0.739L102.94,23.463z"
				/>
			<path opacity="0.75" fill="#F69321" d="M112.448,25.672l4.586,2.076c1.121,0.508,1.867,0.904,2.238,1.19
				c0.547,0.421,0.916,0.899,1.104,1.437s0.162,1.068-0.076,1.596c-0.172,0.379-0.422,0.677-0.746,0.893
				c-0.326,0.216-0.717,0.35-1.174,0.401c-0.293,0.034-0.66,0.01-1.1-0.07c0.459,0.315,0.793,0.596,0.998,0.839
				c0.311,0.368,0.502,0.777,0.572,1.229c0.072,0.453,0.01,0.898-0.189,1.337c-0.191,0.425-0.482,0.768-0.873,1.027
				c-0.389,0.26-0.844,0.412-1.361,0.458c-0.518,0.047-1.064-0.023-1.643-0.206c-0.578-0.184-1.156-0.406-1.736-0.669l-4.832-2.188
				l0.256-0.563l0.324,0.147c0.313,0.142,0.549,0.191,0.707,0.149c0.225-0.055,0.404-0.231,0.539-0.53l2.941-6.495
				c0.139-0.307,0.207-0.527,0.207-0.662c0-0.136-0.039-0.251-0.117-0.347c-0.08-0.096-0.264-0.209-0.553-0.34l-0.326-0.147
				L112.448,25.672z M112.78,31.621l-1.391,3.069c-0.141,0.309-0.209,0.498-0.207,0.568c0,0.098,0.049,0.187,0.145,0.268
				c0.068,0.059,0.285,0.169,0.648,0.334l0.939,0.426c0.932,0.422,1.619,0.672,2.063,0.752c0.443,0.079,0.881,0.021,1.307-0.175
				c0.43-0.197,0.746-0.523,0.953-0.979c0.174-0.384,0.213-0.776,0.119-1.177c-0.092-0.4-0.311-0.758-0.654-1.072
				s-1.029-0.704-2.057-1.169L112.78,31.621z M114.62,27.552l-1.549,3.426l1.764,0.799c0.826,0.374,1.408,0.592,1.748,0.654
				c0.529,0.094,0.986,0.053,1.369-0.124s0.678-0.492,0.883-0.948c0.174-0.385,0.205-0.757,0.094-1.117
				c-0.113-0.36-0.338-0.674-0.68-0.941c-0.223-0.171-0.725-0.434-1.51-0.789L114.62,27.552z"/>
			<path opacity="0.75" fill="#F69321" d="M127.436,33.578l1.018,0.71l-2.211,8.922c-0.113,0.446-0.143,0.773-0.088,0.981
				c0.055,0.209,0.195,0.393,0.424,0.552l0.137,0.096l-0.354,0.507l-3.088-2.156l0.354-0.507c0.105,0.063,0.205,0.126,0.301,0.192
				c0.199,0.14,0.344,0.211,0.434,0.213c0.174,0.008,0.301-0.047,0.383-0.163c0.059-0.085,0.146-0.332,0.26-0.743l0.563-2.029
				l-3.145-2.194l-1.947,1.349c-0.203,0.141-0.33,0.247-0.381,0.318c-0.057,0.081-0.082,0.166-0.082,0.257
				c0.002,0.092,0.029,0.178,0.084,0.26c0.053,0.082,0.162,0.181,0.328,0.297c0.111,0.078,0.203,0.144,0.27,0.197l-0.354,0.507
				l-2.594-1.812l0.354-0.507c0.24,0.168,0.43,0.267,0.568,0.294c0.137,0.027,0.281,0.018,0.432-0.03
				c0.15-0.047,0.406-0.191,0.764-0.431L127.436,33.578z M123.055,37.52l2.68,1.87l1.191-4.552L123.055,37.52z"/>
			<path opacity="0.75" fill="#F69321" d="M138.905,43.516l0.385,0.39l-1.688,2.796l-0.643-0.358
				c0.322-0.939,0.406-1.851,0.252-2.734c-0.121-0.731-0.439-1.36-0.957-1.886c-0.311-0.316-0.646-0.547-1.004-0.691
				s-0.688-0.192-0.984-0.147c-0.299,0.046-0.539,0.157-0.721,0.336c-0.164,0.162-0.275,0.366-0.334,0.615
				c-0.057,0.249-0.047,0.529,0.031,0.843c0.08,0.314,0.275,0.76,0.59,1.338l0.982,1.81c0.121,0.222,0.275,0.565,0.459,1.033
				s0.289,0.869,0.314,1.207c0.025,0.336-0.023,0.668-0.146,0.995c-0.123,0.326-0.316,0.619-0.578,0.876
				c-0.582,0.572-1.348,0.81-2.299,0.714c-0.951-0.097-1.838-0.562-2.658-1.395c-0.422-0.428-0.738-0.872-0.951-1.329
				c-0.213-0.458-0.359-1.034-0.438-1.73l-0.941,0.438l-0.373-0.379l2.133-3.088l0.596,0.405c-0.307,0.662-0.479,1.313-0.518,1.951
				c-0.041,0.639,0.035,1.227,0.227,1.767c0.189,0.539,0.473,1.001,0.85,1.383c0.51,0.521,1.109,0.824,1.797,0.914
				c0.574,0.074,1.035-0.061,1.381-0.4c0.318-0.313,0.463-0.687,0.436-1.12c-0.031-0.438-0.262-1.049-0.689-1.834l-0.951-1.724
				c-0.531-0.966-0.785-1.769-0.758-2.405s0.256-1.167,0.686-1.59c0.336-0.331,0.746-0.535,1.23-0.613
				c0.482-0.078,1.027-0.004,1.631,0.227c0.604,0.229,1.15,0.592,1.639,1.09c0.412,0.418,0.736,0.887,0.973,1.407
				c0.168,0.367,0.271,0.753,0.314,1.158L138.905,43.516z"/>
			<path opacity="0.75" fill="#F69321" d="M142.022,47.048l2.254,3.411L143.76,50.8l-0.16-0.241
				c-0.184-0.278-0.346-0.452-0.486-0.523c-0.141-0.07-0.297-0.083-0.467-0.038c-0.127,0.03-0.307,0.122-0.541,0.275l-3.25,2.148
				l5.604,1.065c0.297,0.052,0.484,0.076,0.559,0.072s0.143-0.025,0.199-0.064c0.076-0.049,0.107-0.123,0.096-0.222
				s-0.098-0.271-0.26-0.515l-0.135-0.202l0.518-0.341l2.086,3.158l-0.516,0.34c-0.16-0.251-0.336-0.46-0.527-0.624
				s-0.371-0.276-0.535-0.338c-0.355-0.135-0.627-0.221-0.809-0.256l-3.912-0.818l-1.693,5.002c-0.152,0.454-0.24,0.79-0.262,1.011
				c-0.023,0.221-0.008,0.423,0.047,0.605c0.053,0.183,0.186,0.435,0.398,0.755l-0.518,0.341l-2.477-3.75l0.514-0.341l0.148,0.222
				c0.164,0.249,0.268,0.393,0.311,0.431c0.064,0.062,0.135,0.097,0.211,0.106s0.141-0.002,0.195-0.038
				c0.105-0.07,0.252-0.376,0.439-0.917l1.311-3.714l-1.867-0.391l-1.639,1.083c-0.283,0.187-0.455,0.343-0.52,0.47
				c-0.063,0.127-0.078,0.268-0.047,0.422c0.027,0.121,0.178,0.389,0.451,0.802l-0.516,0.341l-2.254-3.411l0.516-0.341l0.176,0.266
				c0.176,0.267,0.322,0.431,0.438,0.493c0.115,0.063,0.25,0.082,0.404,0.056s0.385-0.14,0.689-0.341l5.652-3.735
				c0.299-0.198,0.486-0.358,0.561-0.479c0.076-0.123,0.104-0.247,0.084-0.374c-0.02-0.126-0.133-0.349-0.342-0.665l-0.131-0.196
				L142.022,47.048z"/>
			<path opacity="0.75" fill="#F69321" d="M148.758,57.8l3.268,7.958l-2.119,1.945l-0.479-0.525
				c0.344-0.322,0.596-0.623,0.754-0.901c0.16-0.278,0.268-0.579,0.326-0.901c0.059-0.323,0.061-0.624,0.01-0.907
				c-0.053-0.282-0.219-0.764-0.498-1.442l-0.975-2.375l-3.477,1.429l0.484,1.182c0.18,0.437,0.387,0.736,0.619,0.9
				c0.236,0.165,0.477,0.245,0.725,0.241c0.186,0,0.477-0.08,0.871-0.242l0.156-0.064l0.283,0.688l-4.166,1.71l-0.281-0.687
				l0.359-0.149c0.318-0.13,0.537-0.248,0.658-0.355c0.119-0.106,0.215-0.252,0.285-0.436c0.072-0.182,0.1-0.358,0.08-0.53
				c-0.016-0.17-0.1-0.439-0.25-0.804l-0.484-1.183l-3.086,1.267c-0.322,0.133-0.51,0.227-0.568,0.287
				c-0.059,0.06-0.088,0.13-0.09,0.214c-0.004,0.083,0.059,0.281,0.188,0.596l0.604,1.469c0.338,0.819,0.695,1.422,1.076,1.805
				c0.379,0.383,0.838,0.669,1.375,0.858c0.422,0.15,0.963,0.236,1.629,0.259l0.045,0.728l-3.424,0.127l-3.393-8.26l0.57-0.235
				l0.115,0.281c0.135,0.328,0.238,0.522,0.313,0.586c0.107,0.098,0.242,0.152,0.398,0.164c0.109,0.01,0.314-0.048,0.617-0.171
				l6.539-2.687c0.299-0.122,0.484-0.234,0.561-0.337c0.076-0.102,0.109-0.239,0.104-0.411c0-0.093-0.1-0.378-0.295-0.854
				L148.758,57.8z"/>
			<path opacity="0.75" fill="#F69321" d="M153.594,69.578l0.119,0.518l-0.32,0.15l1.451,6.329l0.352-0.018l0.123,0.54l-2.689,1.762
				l-0.383-0.612c0.711-0.502,1.174-1.007,1.391-1.519c0.219-0.512,0.248-1.11,0.09-1.796c-0.064-0.286-0.115-0.453-0.148-0.503
				c-0.033-0.049-0.08-0.079-0.137-0.089c-0.059-0.01-0.229,0.018-0.51,0.082l-6.943,1.593c-0.328,0.075-0.547,0.146-0.652,0.208
				c-0.107,0.063-0.184,0.138-0.229,0.221c-0.047,0.083-0.07,0.188-0.068,0.314s0.047,0.4,0.139,0.82l-0.602,0.139l-0.912-3.978
				l0.602-0.139c0.105,0.438,0.182,0.702,0.229,0.796c0.088,0.161,0.207,0.264,0.359,0.307c0.15,0.043,0.408,0.022,0.768-0.06
				l7.086-1.626c0.221-0.05,0.352-0.093,0.395-0.126c0.043-0.032,0.07-0.083,0.082-0.15c0.012-0.068-0.004-0.197-0.049-0.39
				c-0.123-0.537-0.289-0.952-0.496-1.244c-0.209-0.292-0.506-0.545-0.891-0.758c-0.387-0.212-0.857-0.36-1.416-0.445l0.076-0.718
				L153.594,69.578z"/>
		</g>
		<radialGradient id="SVGID_2_" cx="85.209" cy="105.418" r="54.1414" gradientUnits="userSpaceOnUse">
			<stop  offset="0.8303" style="stop-color:#F69321"/>
			<stop  offset="0.9212" style="stop-color:#FAAF42"/>
		</radialGradient>
		<circle fill-rule="evenodd" clip-rule="evenodd" fill="url(#SVGID_2_)" cx="85.209" cy="105.418" r="54.141"/>
		<g>
			<path fill-rule="evenodd" clip-rule="evenodd" d="M72.879,55.091c-5.175,4.248-9.283,10.89-11.838,17.755
				c-4.299-1.137-8.451-2.688-14.495-2.078c3.228-4.315,8.987-8.216,12.696-10.349c3.926-2.257,7.889-3.946,12.627-5.106
				C72.205,55.313,72.543,55.091,72.879,55.091z"/>
			<path fill-rule="evenodd" clip-rule="evenodd" d="M123.926,70.842c-9.266-0.082-16.02,2.891-20.787,5.253
				c-5.383,2.667-13.891-0.344-22.034-3.556c7.604-5.942,26.797-10.132,37.764-6.459C120.086,66.486,123.26,69.827,123.926,70.842z"
				/>
			<path fill-rule="evenodd" clip-rule="evenodd" d="M44.534,73.093c0.724,4.322,1.134,9.856,1.577,14.003
				c-3.842,0.87-7.477,2.332-10.827,3.974C37.278,84.652,40.602,77.855,44.534,73.093z"/>
			<path fill-rule="evenodd" clip-rule="evenodd" d="M125.792,72.732c6.418,7.716,10.881,17.416,11.352,32.643
				c-5.203-3.378-11.512-7.446-18.119-9.421C121.653,89.331,126.422,82.612,125.792,72.732z"/>
			<path fill-rule="evenodd" clip-rule="evenodd" d="M46.111,88.572c0.055,17.153-9.414,16.563-9.524,35.026
				c-3.308-7.772-4.429-20.825-1.855-30.018C37.945,91.241,42.047,90.062,46.111,88.572z"/>
			<path fill-rule="evenodd" clip-rule="evenodd" d="M47.91,88.621c2.319,0.711,5.51,6.953,5.147,9.032
				c-1.36,6.055-1.835,10.885-0.594,17.214c1.131,5.767,5.472,10.313,5.485,16.242c-4.432,1.963-9.183,4.714-13.291,7.001
				c-2.014-2.998-4.066-5.876-5.578-8.888C36.956,108.531,50.214,103.105,47.91,88.621z"/>
			<path fill-rule="evenodd" clip-rule="evenodd" d="M117.668,97.086c7.68,2.198,14.164,6.687,19.35,11.259
				c-0.982,12.23-4.195,20.598-11.109,29.42c-5.088-2.149-10.313-5.49-15.754-7.284c1.752-4.93,9.053-8.595,10.322-14.63
				C121.862,109.26,118.79,102.859,117.668,97.086z"/>
			<path fill-rule="evenodd" clip-rule="evenodd" d="M59.127,135.231c-1.527,2.342-8.49,5.771-9.984,7.641
				c-1.596-1.361-3.203-3.327-4.36-4.799C48.209,137.292,56.189,134.75,59.127,135.231z"/>
			<path fill-rule="evenodd" clip-rule="evenodd" d="M125.721,138.171c-0.459,0.71-2.227,2.477-4.082,4.355
				c-1.984-1.55-8.943-4.426-10.926-6.977C112.692,135.078,123.083,137.663,125.721,138.171z"/>
			<path fill-rule="evenodd" clip-rule="evenodd" d="M60.254,139.87c1.749,5.483,5.348,10.761,8.836,15.011
				c-3.516-1-12.264-4.931-19.983-11.631C52.735,142.839,57.395,141.051,60.254,139.87z"/>
			<path fill-rule="evenodd" clip-rule="evenodd" d="M107.178,139.39c2.279,0,9.754,2.946,13.574,4.082
				c-1.156,0.918-1.191,1.052-2.021,1.688C118.731,145.16,108.127,140.977,107.178,139.39z"/>
			<path fill-rule="evenodd" clip-rule="evenodd" d="M62.84,74.299c3.041-8.902,9.097-16.564,17.109-20.5
				c15.702-1.009,26.739,3.311,35.415,9.438c-8.09-1.285-20.74,0.744-26.83,3.174C81.332,69.285,72.636,79.113,62.84,74.299z"/>
			<path fill-rule="evenodd" clip-rule="evenodd" stroke="#231F20" stroke-miterlimit="10" d="M62.397,139.87
				c3.194,0.508,5.232,2.835,9.472,2.301c3.648,9.24,22.983,8.84,26.766,0c3.627,0.26,4.648-1.199,6.689-2.522
				c3.246,2.435,7.51,5.124,11.662,6.868c-6.229,5.536-16.805,9.939-28.85,10.827c-7.108,0.524-10.833-0.418-13.11-0.962
				S64.051,146.628,62.397,139.87z"/>
		</g>
		<path fill-rule="evenodd" clip-rule="evenodd" fill="#FAAF42" d="M44.279,70.514c-0.051,23.843,4.047,18.97,7.479,27.387
			c-0.383,2.767,0.176,2.152-2.403,9.604c-2.58,7.451,2.836,13.537,2.836,13.537l4.207,4.656l2.76,3.986l-16.59,9.188l16.057-3.318
			l-13.179,9.303l17.614-4.762c0,0,4.535,2.778,8.743,2.654c2.658,8.531,22.148,9.195,26.8,0.222
			c4.484,0.274,7.641-2.654,7.641-2.654l19.898,4.983l-14.693-9.5l18.051,3.52l-18.492-9.523l5.947-7.088
			c0,0,6.123-5.315,4.129-13.565c-0.543-2.076-2.547-11.241-2.547-11.241s10.078-13.179,7.85-27.797
			c-4.203-0.535-15.49-0.665-23.906,5.647c-5.166-2.229-20.411-6.813-34.499-0.332C63.209,73.052,53.088,67.777,44.279,70.514z"/>
		<path fill-rule="evenodd" clip-rule="evenodd" fill="#010101" d="M116.364,97.692c0,0,10.311-12.322,8.227-25.991
			c-3.932-0.5-14.041,0.043-21.912,5.945c-4.828-2.084-21.742-6.371-34.913-0.311c-4.464-2.213-13.485-8.252-21.721-5.694
			c-0.049,22.294,4.711,17.181,7.215,25.165c-0.358,2.587,0.386,3.785-2.026,10.752s2.431,11.992,2.431,11.992l4.377,5.02
			l3.467,4.613c0,0-0.359,12.894,11.159,11.108c4.779,10.127,20.533,10.367,25.058,0.207c12.082,1.994,11.156-11.212,11.156-11.212
			l6.225-7.735c0,0,5.504-4.97,3.641-12.685C118.239,106.927,116.364,97.692,116.364,97.692z M121.674,73.794
			c0,0-0.221,12.552-6.717,20.82l3.025-17.055c0,0-9.301,1.92-9.893,4.652l-2.879-2.953
			C109.272,75.197,121.674,73.794,121.674,73.794z M50.878,74.016c0,0,0.601-0.146,2.615,0.193c3.66,0.619,8.688,2.779,14.212,6.305
			c23.036-11.519,38.672,6.225,37.758,5.491c-11.678-9.367-25.649-10.55-37.905-3.203C59.732,75.862,50.878,74.016,50.878,74.016z
			 M95.17,109.142v-0.293c0,0,2.797-4.913,9.303-6.574C104.805,112.353,95.17,109.142,95.17,109.142z M87.973,120.27
			c0,0-2.271,2.456-5.206,0c-0.91-2.883,0.996-4.429-0.443-6.865s0.443-1.55,0.443-1.55c2.436,1.883,5.206,0,5.206,0
			s1.771-0.223,0.443,1.329C87.086,114.733,88.729,118.572,87.973,120.27z M75.348,109.03c-4.139,0.856-9.967,0.055-9.358-6.756
			c0,0,6.37,2.184,9.386,6.375L75.348,109.03z M91.79,131.483l-1.463-1.117c-4.291,2.714-6.102,2.53-10.152,0.444
			c0,0-0.849,0.767-1.007,0.812c-0.886-0.932-1.902-2.419-1.902-2.419l0.564-0.848l4.227,0.369c2.123,1.68,5.04,1.348,6.422,0.092
			l4.395-0.517l0.609,0.849L91.79,131.483z M99.877,113.366l2.822,3.535c0,0-6.016-3.643-7.645-5.152
			c-0.34-0.316-0.275-0.538-0.162-0.615c11.186,3.268,11.684-6.257,11.684-6.257h0.941c0,0,0.115,3.714-0.443,6.59
			C105.801,112.851,99.877,113.366,99.877,113.366z M117.043,113.404c-0.164,3.138-9.248,13.954-9.248,13.954s-1.305-0.36-0.604-1.3
			c2.107-2.814,7.652-10.394,7.691-13.577c0.055-4.614-1.883-12.92-1.883-12.92s-0.313-1.443,0.582-0.426
			C115.077,102.054,116.932,106.594,117.043,113.404z"/>
		<path fill-rule="evenodd" clip-rule="evenodd" fill="#777377" d="M90.135,110.159c0.605-2.033,4.74-6.315,14.08-10.745
			c-7.715,0.147-18.76,7.826-18.76,7.826s-12.868-8.053-12.577-10.154c0.291-2.103,5.606-6.017,5.606-6.017
			c-2.953-1.254-11.518,2.079-11.518,2.079s5.833-21.79,31.376-11.749c-15.631-7.31-27.176-0.878-30.786,1.182
			c-11.074-9.155-18.452-8.713-18.452-8.713s1.177,16.687,7.968,22.297l-3.1,12.148c0,0-2.068,5.866,2.066,9.853
			c4.135,3.987,4.577,5.433,4.577,5.433l2.222,2.173c-0.93-5.806-4.891-9.377-4.891-9.377s-2.965-3.55,0-9.749
			c2.965-6.198,3.26-12.99,2.965-15.354c-0.296-2.362-1.815-1.477-1.815-1.477c0.782-4.577-6.158-11.518-6.158-11.518
			s9.745,2.363,11.37,6.646c1.623,4.281-2.807,8.859,0,12.846c2.805,3.987,11.813,5.611,15.946,12.24l-1.328,0.13
			c2.067,7.563-2.362,7.819-1.034,13.249c3.6,4.227,12.542,4.006,15.241-0.366c0.68-5.18-3.033-5.351-1.361-12.883H90.135z
			 M88.417,113.184c-1.33,1.55,0.313,5.389-0.443,7.086c0,0-2.271,2.456-5.206,0c-0.91-2.883,0.996-4.429-0.443-6.865
			s0.443-1.55,0.443-1.55c2.436,1.883,5.206,0,5.206,0S89.745,111.632,88.417,113.184z"/>
		<path fill-rule="evenodd" clip-rule="evenodd" fill="#777377" d="M63.867,104.582H62.84c0,0-0.389,7.358,2.061,7.826
			c2.449,0.467,5.021,0.958,5.021,0.958l-2.215,3.323l7.529-5.167c0,0,2.068-1.182-4.135-0.147
			C64.9,112.408,63.867,104.582,63.867,104.582z"/>
		<path fill-rule="evenodd" clip-rule="evenodd" fill="#777377" d="M75.016,87.158c0,0,8.859-9.967,20.709,0c0,0-6.646-1.772-7.42,0
			c-0.775,1.771-5.317,1.661-5.758,0C82.104,85.496,75.016,87.158,75.016,87.158z"/>
		<g>
			<path fill-rule="evenodd" clip-rule="evenodd" fill="#777377" d="M90.327,130.366c-4.291,2.714-6.102,2.53-10.152,0.444
				l-1.007,0.812c2.031,4.596,9.784,4.596,12.622-0.159L90.327,130.366z"/>
		</g>
		<path fill-rule="evenodd" clip-rule="evenodd" fill="#777377" d="M69.885,128.466c0,0,5.213,2.178,7.534,5.759
			s12.509,3.876,15.574,0s7.383-5.611,7.383-5.611s4.615-2.326,5.537,1.957c0.924,4.281-6.127,8.819-6.127,8.819H71.102
			c-3.949-1.658-6.644-5.703-6.644-5.703S62.205,125.808,69.885,128.466z"/>
		<path fill-rule="evenodd" clip-rule="evenodd" fill="#444446" d="M75.662,100.369l9.793,6.871c0,0,5.674-4.218,13.576-6.871
			c0,0-12.982,7.313-13.553,8.421L75.662,100.369z"/>
		<path fill-rule="evenodd" clip-rule="evenodd" fill="#444446" d="M79.392,112.481c0,0,0.579,2.963-1.218,6.011
			c-0.418,0.56-1.164,3.366-0.472,4.854c2.961,5.231,14.201,3.818,15.673-0.366c0.301-2.321-0.379-3.807-0.879-4.867
			c-1.273-2.578-1.07-5.631-1.07-5.631c-2.291,2.086,1.252,8.676-0.52,10.835c-2.215,2.048-7.887,2.892-10.909,0.055
			C77.748,119.887,81.66,113.238,79.392,112.481z"/>
		<path fill-rule="evenodd" clip-rule="evenodd" fill="#444446" d="M76.936,141.313H93.45
			C93.45,141.313,86.053,151.833,76.936,141.313z"/>
		<path fill-rule="evenodd" clip-rule="evenodd" fill="#444446" d="M64.699,128.942c0,0-3.527,5.946,6.182,10.447h29.125
			c0,0,4.826-3.362,5.773-6.682c0,0-2.348,3.255-5.855,4.989l-28.932-0.002C64.15,134.667,64.699,128.942,64.699,128.942z"/>
		
			<ellipse transform="matrix(0.9798 -0.1999 0.1999 0.9798 -24.951 16.6819)" fill-rule="evenodd" clip-rule="evenodd" fill="#444446" cx="70.115" cy="131.871" rx="0.637" ry="1.301"/>
		
			<ellipse transform="matrix(0.9388 -0.3446 0.3446 0.9388 -42.1277 32.5776)" fill-rule="evenodd" clip-rule="evenodd" fill="#444446" cx="70.586" cy="134.806" rx="0.72" ry="1.302"/>
		
			<ellipse transform="matrix(-0.9796 -0.2008 0.2008 -0.9796 171.8462 281.2813)" fill-rule="evenodd" clip-rule="evenodd" fill="#444446" cx="100.191" cy="131.924" rx="0.637" ry="1.301"/>
		
			<ellipse transform="matrix(-0.9383 -0.3458 0.3458 -0.9383 146.6618 295.8792)" fill-rule="evenodd" clip-rule="evenodd" fill="#444446" cx="99.721" cy="134.858" rx="0.72" ry="1.302"/>
		<path fill-rule="evenodd" clip-rule="evenodd" fill="#231F20" d="M69.922,130.902c0,0-10.743,0.554-20.045,5.205
			c0,0,13.264-3.731,20.045-3.178C69.922,132.93,70.918,132.452,69.922,130.902z"/>
		<path fill-rule="evenodd" clip-rule="evenodd" fill="#231F20" d="M70.307,133.811c0,0-10.478,2.437-18.814,8.653
			c0,0,12.398-6.009,19.171-6.658C70.663,135.806,71.561,135.161,70.307,133.811z"/>
		<path fill-rule="evenodd" clip-rule="evenodd" fill="#231F20" d="M100.331,130.902c0,0,10.744,0.554,20.045,5.205
			c0,0-13.264-3.731-20.045-3.178C100.331,132.93,99.334,132.452,100.331,130.902z"/>
		<path fill-rule="evenodd" clip-rule="evenodd" fill="#231F20" d="M99.946,133.811c0,0,10.477,2.437,18.814,8.653
			c0,0-12.398-6.009-19.172-6.658C99.588,135.806,98.692,135.161,99.946,133.811z"/>
	</g>
	<g>
		
			<linearGradient id="SVGID_3_" gradientUnits="userSpaceOnUse" x1="130.3032" y1="34.665" x2="293.7017" y2="34.665" gradientTransform="matrix(0.5922 -0.8058 0.8058 0.5922 -68.2861 236.5774)">
			<stop  offset="0" style="stop-color:#81C99C"/>
			<stop  offset="0.3014" style="stop-color:#7EAE90"/>
			<stop  offset="0.9652" style="stop-color:#777678"/>
			<stop  offset="1" style="stop-color:#777377"/>
		</linearGradient>
		<circle fill="url(#SVGID_3_)" stroke="#231F20" stroke-width="2" stroke-miterlimit="10" cx="85.194" cy="86.275" r="81.7"/>
		<g>
			<path fill="#45B77B" stroke="#70C496" stroke-width="2" stroke-miterlimit="10" d="M16.632,73.901l0.913-3.774l0.576,0.14
				l-0.091,0.375c-0.061,0.254-0.08,0.441-0.054,0.559c0.025,0.118,0.086,0.219,0.183,0.302c0.097,0.083,0.256,0.151,0.478,0.205
				l5.052,1.221c0.763,0.185,1.33,0.456,1.7,0.815c0.37,0.358,0.628,0.851,0.774,1.477c0.146,0.626,0.128,1.317-0.054,2.071
				c-0.242,1.003-0.696,1.748-1.359,2.233c-0.664,0.486-1.339,0.646-2.024,0.48c-0.343-0.083-0.589-0.227-0.737-0.433
				c-0.148-0.205-0.194-0.428-0.136-0.668c0.045-0.188,0.152-0.329,0.319-0.42c0.167-0.092,0.361-0.111,0.581-0.058
				c0.063,0.016,0.189,0.066,0.376,0.151c0.196,0.092,0.334,0.148,0.417,0.168c0.338,0.082,0.688-0.021,1.051-0.311
				c0.363-0.289,0.612-0.716,0.749-1.282c0.113-0.466,0.113-0.91,0.002-1.331c-0.111-0.421-0.298-0.749-0.56-0.985
				c-0.262-0.235-0.679-0.422-1.25-0.56l-4.997-1.208c-0.341-0.083-0.576-0.111-0.706-0.085c-0.131,0.026-0.239,0.09-0.325,0.195
				c-0.086,0.104-0.167,0.313-0.244,0.629l-0.057,0.233L16.632,73.901z"/>
			<path fill="#45B77B" stroke="#70C496" stroke-width="2" stroke-miterlimit="10" d="M18.208,67.746l1.57-3.591l0.542,0.237
				l-0.105,0.24c-0.128,0.293-0.191,0.514-0.189,0.663c0.001,0.117,0.042,0.223,0.125,0.316c0.083,0.095,0.28,0.21,0.592,0.346
				l4.062,1.775c0.724,0.317,1.3,0.461,1.728,0.434c0.428-0.027,0.852-0.199,1.273-0.515c0.42-0.316,0.741-0.726,0.96-1.227
				c0.221-0.506,0.304-1.042,0.248-1.606c-0.057-0.564-0.22-1.013-0.489-1.348s-0.782-0.667-1.536-0.997l-3.907-1.708
				c-0.286-0.125-0.504-0.186-0.656-0.183c-0.151,0.002-0.282,0.05-0.395,0.141c-0.112,0.091-0.223,0.262-0.332,0.51l-0.113,0.26
				l-0.543-0.237l1.36-3.112l0.543,0.237l-0.093,0.213c-0.153,0.351-0.194,0.621-0.121,0.808c0.073,0.188,0.289,0.36,0.649,0.518
				l4.155,1.816c0.758,0.332,1.326,0.754,1.704,1.269c0.378,0.515,0.592,1.116,0.643,1.805c0.05,0.688-0.087,1.404-0.411,2.146
				c-0.307,0.702-0.738,1.278-1.294,1.728s-1.118,0.713-1.688,0.79c-0.569,0.077-1.194-0.034-1.875-0.332l-4.42-1.932
				c-0.286-0.125-0.499-0.186-0.637-0.183s-0.255,0.044-0.352,0.124c-0.097,0.079-0.201,0.245-0.312,0.499l-0.146,0.333
				L18.208,67.746z"/>
			<path fill="#45B77B" stroke="#70C496" stroke-width="2" stroke-miterlimit="10" d="M23.821,55.738l3.005-4.287
				c0.57-0.813,1.083-1.372,1.54-1.673c0.456-0.302,0.917-0.457,1.384-0.464c0.467-0.007,0.904,0.132,1.313,0.418
				c0.419,0.294,0.715,0.665,0.887,1.112s0.207,0.942,0.105,1.484c-0.103,0.543-0.388,1.157-0.857,1.843l4.14-0.377
				c0.341-0.027,0.556-0.052,0.645-0.072c0.217-0.055,0.41-0.137,0.578-0.247c0.169-0.11,0.32-0.26,0.453-0.45l0.104-0.149
				l0.485,0.34l-1.326,1.892l-5.987,0.358l-0.748,1.067l2.482,1.74c0.277,0.194,0.458,0.306,0.541,0.334
				c0.162,0.048,0.303,0.042,0.425-0.017s0.282-0.23,0.479-0.512l0.15-0.215l0.485,0.34l-2.229,3.18l-0.485-0.34l0.2-0.286
				c0.15-0.215,0.238-0.368,0.262-0.46c0.025-0.092,0.023-0.191-0.004-0.296c-0.027-0.104-0.084-0.206-0.171-0.302
				c-0.037-0.037-0.228-0.179-0.571-0.426l-5.272-3.696c-0.234-0.164-0.419-0.258-0.554-0.281c-0.135-0.023-0.255-0.009-0.36,0.045
				c-0.104,0.054-0.231,0.186-0.378,0.396l-0.238,0.339L23.821,55.738z M25.961,54.023l3.032,2.125l1.2-1.711
				c0.407-0.58,0.658-1.012,0.753-1.295c0.142-0.398,0.157-0.781,0.045-1.146s-0.357-0.682-0.739-0.949
				c-0.323-0.227-0.644-0.348-0.963-0.364c-0.319-0.016-0.617,0.058-0.896,0.222c-0.278,0.163-0.585,0.483-0.919,0.96L25.961,54.023
				z"/>
			<path fill="#45B77B" stroke="#70C496" stroke-width="2" stroke-miterlimit="10" d="M33.687,43.373l0.85-0.833l8.01,3.667
				c0.4,0.187,0.703,0.272,0.909,0.258c0.206-0.015,0.404-0.115,0.595-0.302l0.114-0.112l0.414,0.423L42,49l-0.415-0.423
				c0.077-0.088,0.155-0.171,0.234-0.249c0.167-0.163,0.259-0.287,0.278-0.371c0.038-0.162,0.009-0.292-0.086-0.389
				c-0.069-0.071-0.287-0.196-0.654-0.376L39.546,46.3l-2.625,2.571l0.925,2.075c0.096,0.215,0.173,0.353,0.232,0.414
				c0.066,0.068,0.142,0.108,0.228,0.123c0.086,0.015,0.172,0.004,0.259-0.032c0.087-0.036,0.2-0.122,0.338-0.257
				c0.093-0.091,0.171-0.164,0.233-0.219l0.415,0.423l-2.167,2.122l-0.415-0.423c0.201-0.197,0.327-0.358,0.377-0.483
				c0.05-0.125,0.066-0.263,0.048-0.413c-0.018-0.15-0.108-0.416-0.271-0.796L33.687,43.373z M36.621,48.198l2.238-2.192
				l-4.076-1.931L36.621,48.198z"/>
			<path fill="#45B77B" stroke="#70C496" stroke-width="2" stroke-miterlimit="10" d="M43.973,35.47l-0.291-0.516l3.154-1.779
				c1.444-0.815,2.5-1.295,3.17-1.44c0.985-0.216,1.939-0.12,2.86,0.289c1.017,0.452,1.812,1.183,2.381,2.195
				c0.389,0.688,0.607,1.408,0.656,2.16c0.049,0.753-0.057,1.44-0.318,2.062c-0.213,0.52-0.555,0.995-1.025,1.424
				c-0.47,0.43-0.979,0.8-1.528,1.109l-4.516,2.547l-0.291-0.516l0.367-0.208l0.124-0.062c0.156-0.088,0.267-0.191,0.332-0.309
				c0.064-0.117,0.089-0.239,0.073-0.365c-0.014-0.094-0.101-0.283-0.26-0.565l-3.233-5.73c-0.183-0.326-0.323-0.524-0.419-0.595
				c-0.131-0.094-0.276-0.129-0.435-0.105C44.683,35.086,44.416,35.22,43.973,35.47z M50.443,41.568l1.915-1.08
				c0.19-0.107,0.488-0.318,0.892-0.633c0.405-0.315,0.676-0.573,0.813-0.774c0.2-0.297,0.344-0.674,0.432-1.131
				c0.088-0.457,0.08-0.941-0.022-1.454c-0.103-0.513-0.311-1.047-0.625-1.604c-0.313-0.553-0.654-0.993-1.024-1.318
				c-0.37-0.326-0.79-0.57-1.258-0.733c-0.468-0.163-0.924-0.23-1.369-0.204c-0.445,0.027-0.896,0.14-1.352,0.337
				c-0.244,0.111-0.639,0.32-1.184,0.627l-1.3,0.733L50.443,41.568z"/>
			<path fill="#45B77B" stroke="#70C496" stroke-width="2" stroke-miterlimit="10" d="M60.394,26.745
				c0.876-0.303,1.737-0.373,2.584-0.209c0.918,0.175,1.704,0.542,2.357,1.102s1.14,1.302,1.46,2.226
				c0.496,1.43,0.441,2.755-0.163,3.975c-0.604,1.22-1.617,2.075-3.038,2.567c-1.586,0.549-3.03,0.442-4.331-0.321
				c-1.063-0.622-1.807-1.548-2.233-2.779c-0.317-0.915-0.388-1.81-0.213-2.684c0.174-0.874,0.581-1.658,1.218-2.352
				C58.673,27.577,59.459,27.068,60.394,26.745z M60.64,27.465c-0.716,0.249-1.276,0.62-1.68,1.116
				c-0.404,0.496-0.654,1.106-0.75,1.831c-0.096,0.725,0.013,1.541,0.327,2.446c0.3,0.867,0.707,1.548,1.221,2.044
				c0.514,0.497,1.083,0.815,1.708,0.957c0.625,0.142,1.258,0.102,1.901-0.121c0.638-0.221,1.148-0.573,1.531-1.056
				c0.382-0.483,0.618-1.117,0.706-1.901s-0.01-1.587-0.295-2.409c-0.289-0.835-0.715-1.543-1.276-2.125
				c-0.481-0.5-0.999-0.813-1.552-0.94S61.315,27.231,60.64,27.465z"/>
			<path fill="#45B77B" stroke="#70C496" stroke-width="2" stroke-miterlimit="10" d="M67.729,24.701l3.867-0.722l0.108,0.582
				l-0.357,0.067c-0.277,0.051-0.467,0.114-0.572,0.187c-0.105,0.073-0.174,0.163-0.208,0.27c-0.034,0.108-0.028,0.287,0.019,0.539
				l1.259,6.745c0.058,0.31,0.104,0.493,0.139,0.548c0.044,0.078,0.118,0.126,0.22,0.146c0.072,0.015,0.268-0.007,0.587-0.066
				l0.536-0.1c0.615-0.115,1.133-0.301,1.553-0.559c0.42-0.257,0.764-0.583,1.031-0.974c0.268-0.392,0.492-0.944,0.675-1.658
				l0.675,0.089l-0.55,3.238l-7.176,1.339l-0.109-0.583l0.314-0.059c0.305-0.057,0.505-0.121,0.601-0.191
				c0.095-0.07,0.161-0.169,0.196-0.298c0.035-0.128,0.026-0.336-0.028-0.623l-1.228-6.579c-0.062-0.335-0.131-0.554-0.204-0.659
				c-0.074-0.104-0.165-0.171-0.274-0.202c-0.109-0.03-0.326-0.015-0.65,0.045l-0.314,0.059L67.729,24.701z"/>
			<path fill="#45B77B" stroke="#70C496" stroke-width="2" stroke-miterlimit="10" d="M82.998,22.55
				c0.926-0.037,1.771,0.146,2.534,0.549c0.828,0.433,1.473,1.012,1.937,1.737c0.463,0.725,0.714,1.577,0.753,2.554
				c0.059,1.513-0.377,2.765-1.309,3.756c-0.932,0.992-2.149,1.518-3.652,1.577c-1.677,0.066-3.028-0.455-4.052-1.562
				c-0.837-0.903-1.28-2.006-1.332-3.307c-0.038-0.967,0.153-1.844,0.574-2.63c0.42-0.786,1.036-1.418,1.848-1.897
				S82.009,22.589,82.998,22.55z M83.025,23.311c-0.758,0.03-1.401,0.224-1.932,0.581c-0.531,0.357-0.946,0.869-1.248,1.535
				c-0.302,0.666-0.435,1.478-0.396,2.436c0.036,0.916,0.228,1.686,0.576,2.31c0.348,0.624,0.8,1.094,1.357,1.411
				c0.557,0.317,1.175,0.462,1.855,0.436c0.674-0.027,1.265-0.216,1.771-0.568c0.506-0.351,0.915-0.89,1.227-1.615
				c0.312-0.725,0.45-1.522,0.416-2.391c-0.035-0.883-0.236-1.685-0.605-2.404c-0.316-0.618-0.72-1.067-1.212-1.349
				S83.738,23.283,83.025,23.311z"/>
			<path fill="#45B77B" stroke="#70C496" stroke-width="2" stroke-miterlimit="10" d="M90.287,22.756l3.871,0.308l-0.047,0.59
				l-0.297-0.023c-0.28-0.022-0.486-0.001-0.618,0.064s-0.232,0.166-0.301,0.3c-0.069,0.135-0.12,0.402-0.151,0.803l-0.502,6.319
				c-0.025,0.319-0.012,0.547,0.041,0.686c0.052,0.139,0.132,0.243,0.241,0.313c0.108,0.07,0.31,0.117,0.605,0.14l0.297,0.024
				l-0.047,0.591l-3.871-0.308l0.047-0.591l0.319,0.026c0.285,0.022,0.489,0.007,0.613-0.047c0.123-0.054,0.216-0.139,0.279-0.253
				c0.063-0.115,0.108-0.344,0.135-0.687l0.514-6.467c0.029-0.363,0.022-0.609-0.021-0.739c-0.043-0.129-0.122-0.228-0.235-0.296
				s-0.313-0.114-0.598-0.137l-0.319-0.025L90.287,22.756z"/>
			<path fill="#45B77B" stroke="#70C496" stroke-width="2" stroke-miterlimit="10" d="M102.949,24.48l0.516,0.097l0.202,3.124
				l-0.701,0.069c-0.261-0.915-0.694-1.678-1.298-2.29c-0.495-0.509-1.09-0.83-1.785-0.96c-0.419-0.079-0.809-0.077-1.169,0.006
				c-0.36,0.083-0.646,0.223-0.855,0.423c-0.21,0.199-0.337,0.419-0.383,0.658c-0.041,0.217-0.016,0.439,0.074,0.666
				c0.091,0.228,0.252,0.442,0.486,0.646c0.233,0.204,0.631,0.447,1.195,0.73l1.764,0.886c0.216,0.108,0.525,0.295,0.925,0.562
				c0.401,0.267,0.704,0.526,0.908,0.778c0.204,0.251,0.348,0.539,0.43,0.863c0.082,0.324,0.09,0.66,0.025,1.006
				c-0.145,0.768-0.618,1.374-1.419,1.819s-1.752,0.564-2.853,0.357c-0.567-0.107-1.059-0.282-1.477-0.525
				c-0.418-0.244-0.848-0.618-1.291-1.123l-0.502,0.86l-0.501-0.094l-0.01-3.597l0.689-0.006c0.123,0.688,0.342,1.294,0.661,1.818
				s0.7,0.946,1.145,1.267c0.445,0.321,0.921,0.528,1.426,0.624c0.686,0.129,1.324,0.041,1.914-0.264
				c0.492-0.256,0.781-0.613,0.868-1.071c0.079-0.42-0.011-0.794-0.271-1.12c-0.264-0.327-0.779-0.682-1.545-1.066l-1.693-0.835
				c-0.947-0.47-1.584-0.963-1.911-1.479c-0.328-0.516-0.438-1.058-0.331-1.626c0.084-0.444,0.294-0.829,0.632-1.155
				c0.337-0.327,0.807-0.564,1.407-0.715c0.6-0.15,1.229-0.164,1.887-0.04c0.553,0.104,1.064,0.296,1.534,0.576
				c0.333,0.197,0.627,0.443,0.882,0.74L102.949,24.48z"/>
			<path fill="#45B77B" stroke="#70C496" stroke-width="2" stroke-miterlimit="10" d="M112.459,26.69l4.586,2.076
				c1.12,0.508,1.866,0.905,2.237,1.19c0.548,0.421,0.917,0.899,1.104,1.436c0.188,0.537,0.163,1.069-0.076,1.596
				c-0.172,0.38-0.421,0.677-0.746,0.893c-0.326,0.216-0.717,0.35-1.173,0.401c-0.293,0.034-0.66,0.01-1.101-0.071
				c0.46,0.316,0.793,0.596,0.999,0.84c0.31,0.367,0.501,0.777,0.573,1.229c0.072,0.453,0.009,0.899-0.189,1.337
				c-0.192,0.425-0.483,0.767-0.873,1.027c-0.39,0.26-0.844,0.413-1.361,0.459c-0.518,0.046-1.065-0.022-1.644-0.206
				c-0.578-0.184-1.156-0.407-1.737-0.67l-4.832-2.187l0.255-0.563l0.325,0.147c0.313,0.142,0.549,0.192,0.706,0.15
				c0.225-0.054,0.405-0.231,0.541-0.531l2.94-6.496c0.139-0.306,0.208-0.527,0.208-0.662c0-0.135-0.039-0.251-0.118-0.346
				c-0.079-0.096-0.264-0.209-0.554-0.34l-0.325-0.147L112.459,26.69z M112.789,32.639l-1.39,3.07
				c-0.14,0.309-0.209,0.498-0.208,0.569c0,0.097,0.049,0.186,0.146,0.268c0.068,0.058,0.284,0.169,0.648,0.334l0.94,0.425
				c0.931,0.422,1.619,0.672,2.063,0.752c0.444,0.08,0.88,0.022,1.308-0.175c0.428-0.197,0.745-0.523,0.952-0.979
				c0.174-0.384,0.214-0.777,0.121-1.177s-0.312-0.758-0.656-1.072c-0.343-0.314-1.029-0.704-2.057-1.169L112.789,32.639z
				 M114.631,28.57l-1.551,3.426l1.765,0.799c0.826,0.374,1.408,0.592,1.747,0.654c0.53,0.095,0.986,0.054,1.37-0.123
				c0.383-0.176,0.677-0.493,0.884-0.949c0.174-0.384,0.205-0.756,0.093-1.117c-0.113-0.36-0.338-0.674-0.679-0.941
				c-0.223-0.171-0.727-0.434-1.511-0.789L114.631,28.57z"/>
			<path fill="#45B77B" stroke="#70C496" stroke-width="2" stroke-miterlimit="10" d="M127.448,34.597l1.018,0.71l-2.211,8.923
				c-0.114,0.446-0.144,0.773-0.088,0.982c0.055,0.208,0.196,0.392,0.424,0.551l0.137,0.096l-0.354,0.507l-3.089-2.156l0.354-0.507
				c0.105,0.061,0.205,0.125,0.301,0.192c0.199,0.139,0.344,0.21,0.434,0.213c0.173,0.007,0.301-0.047,0.382-0.164
				c0.059-0.084,0.146-0.332,0.26-0.743l0.563-2.03l-3.144-2.195l-1.949,1.35c-0.203,0.14-0.329,0.246-0.38,0.318
				c-0.056,0.081-0.083,0.166-0.082,0.257s0.029,0.177,0.083,0.26c0.054,0.082,0.164,0.181,0.33,0.297
				c0.112,0.078,0.202,0.144,0.27,0.197l-0.354,0.507l-2.594-1.811l0.354-0.507c0.241,0.168,0.43,0.266,0.568,0.293
				c0.138,0.028,0.282,0.018,0.433-0.03c0.15-0.047,0.405-0.191,0.764-0.431L127.448,34.597z M123.067,38.539l2.68,1.871
				l1.192-4.553L123.067,38.539z"/>
			<path fill="#45B77B" stroke="#70C496" stroke-width="2" stroke-miterlimit="10" d="M138.918,44.535l0.384,0.39l-1.688,2.796
				l-0.642-0.359c0.321-0.939,0.405-1.851,0.251-2.734c-0.121-0.732-0.44-1.36-0.957-1.886c-0.312-0.317-0.647-0.547-1.005-0.691
				s-0.686-0.193-0.984-0.147c-0.299,0.046-0.539,0.158-0.72,0.336c-0.165,0.162-0.275,0.367-0.333,0.615
				c-0.058,0.249-0.047,0.53,0.031,0.843c0.079,0.313,0.275,0.759,0.589,1.338l0.983,1.81c0.121,0.221,0.274,0.566,0.458,1.033
				s0.289,0.87,0.314,1.207c0.025,0.336-0.024,0.668-0.147,0.995s-0.315,0.619-0.578,0.877c-0.581,0.571-1.347,0.809-2.299,0.713
				s-1.838-0.561-2.657-1.394c-0.422-0.429-0.74-0.873-0.952-1.33c-0.213-0.458-0.359-1.035-0.438-1.73l-0.942,0.438l-0.374-0.38
				l2.134-3.087l0.595,0.405c-0.306,0.662-0.478,1.312-0.518,1.951c-0.04,0.638,0.036,1.228,0.227,1.768s0.474,1,0.85,1.383
				c0.511,0.52,1.11,0.824,1.797,0.915c0.575,0.073,1.035-0.06,1.381-0.401c0.318-0.313,0.463-0.687,0.436-1.12
				c-0.031-0.438-0.261-1.049-0.689-1.834l-0.952-1.724c-0.532-0.967-0.784-1.77-0.757-2.406c0.027-0.637,0.256-1.167,0.686-1.59
				c0.336-0.33,0.746-0.534,1.229-0.613c0.484-0.079,1.027-0.003,1.632,0.226c0.603,0.229,1.15,0.593,1.64,1.09
				c0.411,0.418,0.735,0.888,0.971,1.407c0.168,0.367,0.273,0.753,0.315,1.16L138.918,44.535z"/>
			<path fill="#45B77B" stroke="#70C496" stroke-width="2" stroke-miterlimit="10" d="M142.035,48.067l2.255,3.412l-0.516,0.341
				l-0.159-0.241c-0.184-0.278-0.346-0.453-0.487-0.524c-0.141-0.07-0.296-0.083-0.466-0.038c-0.127,0.029-0.308,0.122-0.542,0.276
				l-3.25,2.147l5.604,1.066c0.297,0.052,0.483,0.076,0.558,0.072c0.075-0.004,0.142-0.025,0.2-0.063
				c0.075-0.049,0.107-0.124,0.095-0.222c-0.011-0.098-0.098-0.27-0.26-0.515l-0.134-0.202l0.516-0.341l2.087,3.158l-0.516,0.341
				c-0.16-0.251-0.336-0.459-0.528-0.624c-0.191-0.164-0.37-0.277-0.535-0.338c-0.356-0.135-0.625-0.22-0.81-0.256l-3.912-0.818
				l-1.693,5.003c-0.153,0.453-0.241,0.79-0.263,1.011c-0.022,0.22-0.006,0.422,0.047,0.605c0.053,0.183,0.186,0.435,0.397,0.755
				l-0.515,0.341l-2.479-3.75l0.516-0.341l0.146,0.222c0.164,0.249,0.268,0.393,0.311,0.431c0.064,0.061,0.134,0.096,0.211,0.106
				s0.142-0.002,0.195-0.038c0.106-0.07,0.252-0.376,0.439-0.918l1.312-3.714l-1.867-0.391l-1.639,1.083
				c-0.283,0.187-0.455,0.343-0.519,0.469c-0.063,0.127-0.079,0.268-0.047,0.423c0.027,0.122,0.178,0.389,0.451,0.802l-0.516,0.341
				l-2.254-3.412l0.516-0.34l0.176,0.266c0.176,0.266,0.321,0.43,0.437,0.494c0.116,0.063,0.25,0.081,0.405,0.055
				c0.154-0.026,0.384-0.14,0.689-0.341l5.654-3.736c0.299-0.197,0.486-0.357,0.561-0.479c0.075-0.123,0.103-0.247,0.084-0.374
				c-0.02-0.127-0.134-0.348-0.343-0.665l-0.129-0.196L142.035,48.067z"/>
			<path fill="#45B77B" stroke="#70C496" stroke-width="2" stroke-miterlimit="10" d="M148.772,58.821l3.269,7.959l-2.12,1.946
				l-0.479-0.525c0.345-0.322,0.597-0.623,0.755-0.902c0.159-0.278,0.268-0.579,0.326-0.901c0.059-0.322,0.062-0.625,0.009-0.907
				c-0.052-0.282-0.218-0.763-0.497-1.442l-0.976-2.375l-3.478,1.429l0.486,1.182c0.179,0.436,0.386,0.736,0.62,0.901
				c0.234,0.164,0.476,0.245,0.724,0.241c0.186,0,0.477-0.081,0.871-0.243l0.156-0.064l0.283,0.688l-4.166,1.711l-0.283-0.688
				l0.361-0.148c0.317-0.13,0.537-0.249,0.657-0.356c0.12-0.107,0.216-0.251,0.287-0.434c0.071-0.183,0.098-0.36,0.081-0.53
				c-0.018-0.171-0.101-0.44-0.251-0.806l-0.485-1.182l-3.085,1.267c-0.322,0.132-0.511,0.228-0.569,0.287
				c-0.058,0.06-0.088,0.13-0.091,0.214s0.06,0.282,0.189,0.596l0.604,1.469c0.336,0.82,0.695,1.422,1.076,1.805
				c0.38,0.383,0.838,0.669,1.376,0.859c0.42,0.15,0.963,0.236,1.627,0.258l0.044,0.728l-3.424,0.127l-3.393-8.261l0.572-0.235
				l0.115,0.281c0.135,0.327,0.238,0.522,0.312,0.585c0.109,0.097,0.242,0.152,0.399,0.164c0.109,0.01,0.315-0.047,0.617-0.171
				l6.541-2.687c0.298-0.122,0.484-0.234,0.56-0.336c0.076-0.102,0.11-0.239,0.104-0.412c-0.001-0.092-0.099-0.377-0.295-0.854
				L148.772,58.821z"/>
			<path fill="#45B77B" stroke="#70C496" stroke-width="2" stroke-miterlimit="10" d="M153.609,70.601l0.119,0.518l-0.32,0.151
				l1.453,6.331l0.351-0.019l0.124,0.54l-2.691,1.762l-0.382-0.613c0.71-0.5,1.175-1.007,1.392-1.519
				c0.217-0.511,0.247-1.11,0.09-1.795c-0.065-0.286-0.115-0.454-0.149-0.503c-0.034-0.049-0.08-0.079-0.137-0.089
				c-0.058-0.01-0.228,0.017-0.51,0.082l-6.942,1.593c-0.33,0.076-0.548,0.145-0.654,0.208c-0.106,0.063-0.183,0.136-0.229,0.22
				c-0.046,0.083-0.069,0.188-0.067,0.315c0.001,0.126,0.047,0.4,0.139,0.82l-0.603,0.138l-0.913-3.979l0.602-0.138
				c0.106,0.438,0.182,0.703,0.229,0.796c0.087,0.161,0.208,0.264,0.359,0.307c0.152,0.043,0.408,0.023,0.77-0.06l7.086-1.626
				c0.22-0.05,0.351-0.092,0.394-0.125c0.043-0.033,0.07-0.083,0.083-0.151c0.012-0.068-0.004-0.198-0.048-0.39
				c-0.124-0.537-0.289-0.952-0.497-1.244s-0.505-0.544-0.891-0.757c-0.386-0.213-0.858-0.361-1.416-0.446l0.077-0.719
				L153.609,70.601z"/>
		</g>
		<path fill="#231F20" d="M16.632,73.901l0.913-3.774l0.576,0.14l-0.091,0.375c-0.061,0.254-0.08,0.441-0.054,0.559
			c0.025,0.118,0.086,0.219,0.183,0.302c0.097,0.083,0.256,0.151,0.478,0.205l5.052,1.221c0.763,0.185,1.33,0.456,1.7,0.815
			c0.37,0.358,0.628,0.851,0.774,1.477c0.146,0.626,0.128,1.317-0.054,2.071c-0.242,1.003-0.696,1.748-1.359,2.233
			c-0.664,0.486-1.339,0.646-2.024,0.48c-0.343-0.083-0.589-0.227-0.737-0.433c-0.148-0.205-0.194-0.428-0.136-0.668
			c0.045-0.188,0.152-0.329,0.319-0.42c0.167-0.092,0.361-0.111,0.581-0.058c0.063,0.016,0.189,0.066,0.376,0.151
			c0.196,0.092,0.334,0.148,0.417,0.168c0.338,0.082,0.688-0.021,1.051-0.311c0.363-0.289,0.612-0.716,0.749-1.282
			c0.113-0.466,0.113-0.91,0.002-1.331c-0.111-0.421-0.298-0.749-0.56-0.985c-0.262-0.235-0.679-0.422-1.25-0.56l-4.997-1.208
			c-0.341-0.083-0.576-0.111-0.706-0.085c-0.131,0.026-0.239,0.09-0.325,0.195c-0.086,0.104-0.167,0.313-0.244,0.629l-0.057,0.233
			L16.632,73.901z"/>
		<path fill="#231F20" d="M18.208,67.746l1.57-3.591l0.542,0.237l-0.105,0.24c-0.128,0.293-0.191,0.514-0.189,0.663
			c0.001,0.117,0.042,0.223,0.125,0.316c0.083,0.095,0.28,0.21,0.592,0.346l4.062,1.775c0.724,0.317,1.3,0.461,1.728,0.434
			c0.428-0.027,0.852-0.199,1.273-0.515c0.42-0.316,0.741-0.726,0.96-1.227c0.221-0.506,0.304-1.042,0.248-1.606
			c-0.057-0.564-0.22-1.013-0.489-1.348s-0.782-0.667-1.536-0.997l-3.907-1.708c-0.286-0.125-0.504-0.186-0.656-0.183
			c-0.151,0.002-0.282,0.05-0.395,0.141c-0.112,0.091-0.223,0.262-0.332,0.51l-0.113,0.26l-0.543-0.237l1.36-3.112l0.543,0.237
			l-0.093,0.213c-0.153,0.351-0.194,0.621-0.121,0.808c0.073,0.188,0.289,0.36,0.649,0.518l4.155,1.816
			c0.758,0.332,1.326,0.754,1.704,1.269c0.378,0.515,0.592,1.116,0.643,1.805c0.05,0.688-0.087,1.404-0.411,2.146
			c-0.307,0.702-0.738,1.278-1.294,1.728s-1.118,0.713-1.688,0.79c-0.569,0.077-1.194-0.034-1.875-0.332l-4.42-1.932
			c-0.286-0.125-0.499-0.186-0.637-0.183s-0.255,0.044-0.352,0.124c-0.097,0.079-0.201,0.245-0.312,0.499l-0.146,0.333
			L18.208,67.746z"/>
		<path fill="#231F20" d="M23.821,55.738l3.005-4.287c0.57-0.813,1.083-1.372,1.54-1.673c0.456-0.302,0.917-0.457,1.384-0.464
			c0.467-0.007,0.904,0.132,1.313,0.418c0.419,0.294,0.715,0.665,0.887,1.112s0.207,0.942,0.105,1.484
			c-0.103,0.543-0.388,1.157-0.857,1.843l4.14-0.377c0.341-0.027,0.556-0.052,0.645-0.072c0.217-0.055,0.41-0.137,0.578-0.247
			c0.169-0.11,0.32-0.26,0.453-0.45l0.104-0.149l0.485,0.34l-1.326,1.892l-5.987,0.358l-0.748,1.067l2.482,1.74
			c0.277,0.194,0.458,0.306,0.541,0.334c0.162,0.048,0.303,0.042,0.425-0.017s0.282-0.23,0.479-0.512l0.15-0.215l0.485,0.34
			l-2.229,3.18l-0.485-0.34l0.2-0.286c0.15-0.215,0.238-0.368,0.262-0.46c0.025-0.092,0.023-0.191-0.004-0.296
			c-0.027-0.104-0.084-0.206-0.171-0.302c-0.037-0.037-0.228-0.179-0.571-0.426l-5.272-3.696c-0.234-0.164-0.419-0.258-0.554-0.281
			c-0.135-0.023-0.255-0.009-0.36,0.045c-0.104,0.054-0.231,0.186-0.378,0.396l-0.238,0.339L23.821,55.738z M25.961,54.023
			l3.032,2.125l1.2-1.711c0.407-0.58,0.658-1.012,0.753-1.295c0.142-0.398,0.157-0.781,0.045-1.146s-0.357-0.682-0.739-0.949
			c-0.323-0.227-0.644-0.348-0.963-0.364c-0.319-0.016-0.617,0.058-0.896,0.222c-0.278,0.163-0.585,0.483-0.919,0.96L25.961,54.023z
			"/>
		<path fill="#231F20" d="M33.687,43.373l0.85-0.833l8.01,3.667c0.4,0.187,0.703,0.272,0.909,0.258
			c0.206-0.015,0.404-0.115,0.595-0.302l0.114-0.112l0.414,0.423L42,49l-0.415-0.423c0.077-0.088,0.155-0.171,0.234-0.249
			c0.167-0.163,0.259-0.287,0.278-0.371c0.038-0.162,0.009-0.292-0.086-0.389c-0.069-0.071-0.287-0.196-0.654-0.376L39.546,46.3
			l-2.625,2.571l0.925,2.075c0.096,0.215,0.173,0.353,0.232,0.414c0.066,0.068,0.142,0.108,0.228,0.123
			c0.086,0.015,0.172,0.004,0.259-0.032c0.087-0.036,0.2-0.122,0.338-0.257c0.093-0.091,0.171-0.164,0.233-0.219l0.415,0.423
			l-2.167,2.122l-0.415-0.423c0.201-0.197,0.327-0.358,0.377-0.483c0.05-0.125,0.066-0.263,0.048-0.413
			c-0.018-0.15-0.108-0.416-0.271-0.796L33.687,43.373z M36.621,48.198l2.238-2.192l-4.076-1.931L36.621,48.198z"/>
		<path fill="#231F20" d="M43.973,35.47l-0.291-0.516l3.154-1.779c1.444-0.815,2.5-1.295,3.17-1.44
			c0.985-0.216,1.939-0.12,2.86,0.289c1.017,0.452,1.812,1.183,2.381,2.195c0.389,0.688,0.607,1.408,0.656,2.16
			c0.049,0.753-0.057,1.44-0.318,2.062c-0.213,0.52-0.555,0.995-1.025,1.424c-0.47,0.43-0.979,0.8-1.528,1.109l-4.516,2.547
			l-0.291-0.516l0.367-0.208l0.124-0.062c0.156-0.088,0.267-0.191,0.332-0.309c0.064-0.117,0.089-0.239,0.073-0.365
			c-0.014-0.094-0.101-0.283-0.26-0.565l-3.233-5.73c-0.183-0.326-0.323-0.524-0.419-0.595c-0.131-0.094-0.276-0.129-0.435-0.105
			C44.683,35.086,44.416,35.22,43.973,35.47z M50.443,41.568l1.915-1.08c0.19-0.107,0.488-0.318,0.892-0.633
			c0.405-0.315,0.676-0.573,0.813-0.774c0.2-0.297,0.344-0.674,0.432-1.131c0.088-0.457,0.08-0.941-0.022-1.454
			c-0.103-0.513-0.311-1.047-0.625-1.604c-0.313-0.553-0.654-0.993-1.024-1.318c-0.37-0.326-0.79-0.57-1.258-0.733
			c-0.468-0.163-0.924-0.23-1.369-0.204c-0.445,0.027-0.896,0.14-1.352,0.337c-0.244,0.111-0.639,0.32-1.184,0.627l-1.3,0.733
			L50.443,41.568z"/>
		<path fill="#231F20" d="M60.394,26.745c0.876-0.303,1.737-0.373,2.584-0.209c0.918,0.175,1.704,0.542,2.357,1.102
			s1.14,1.302,1.46,2.226c0.496,1.43,0.441,2.755-0.163,3.975c-0.604,1.22-1.617,2.075-3.038,2.567
			c-1.586,0.549-3.03,0.442-4.331-0.321c-1.063-0.622-1.807-1.548-2.233-2.779c-0.317-0.915-0.388-1.81-0.213-2.684
			c0.174-0.874,0.581-1.658,1.218-2.352C58.673,27.577,59.459,27.068,60.394,26.745z M60.64,27.465
			c-0.716,0.249-1.276,0.62-1.68,1.116c-0.404,0.496-0.654,1.106-0.75,1.831c-0.096,0.725,0.013,1.541,0.327,2.446
			c0.3,0.867,0.707,1.548,1.221,2.044c0.514,0.497,1.083,0.815,1.708,0.957c0.625,0.142,1.258,0.102,1.901-0.121
			c0.638-0.221,1.148-0.573,1.531-1.056c0.382-0.483,0.618-1.117,0.706-1.901s-0.01-1.587-0.295-2.409
			c-0.289-0.835-0.715-1.543-1.276-2.125c-0.481-0.5-0.999-0.813-1.552-0.94S61.315,27.231,60.64,27.465z"/>
		<path fill="#231F20" d="M67.729,24.701l3.867-0.722l0.108,0.582l-0.357,0.067c-0.277,0.051-0.467,0.114-0.572,0.187
			c-0.105,0.073-0.174,0.163-0.208,0.27c-0.034,0.108-0.028,0.287,0.019,0.539l1.259,6.745c0.058,0.31,0.104,0.493,0.139,0.548
			c0.044,0.078,0.118,0.126,0.22,0.146c0.072,0.015,0.268-0.007,0.587-0.066l0.536-0.1c0.615-0.115,1.133-0.301,1.553-0.559
			c0.42-0.257,0.764-0.583,1.031-0.974c0.268-0.392,0.492-0.944,0.675-1.658l0.675,0.089l-0.55,3.238l-7.176,1.339l-0.109-0.583
			l0.314-0.059c0.305-0.057,0.505-0.121,0.601-0.191c0.095-0.07,0.161-0.169,0.196-0.298c0.035-0.128,0.026-0.336-0.028-0.623
			l-1.228-6.579c-0.062-0.335-0.131-0.554-0.204-0.659c-0.074-0.104-0.165-0.171-0.274-0.202c-0.109-0.03-0.326-0.015-0.65,0.045
			l-0.314,0.059L67.729,24.701z"/>
		<path fill="#231F20" d="M82.998,22.55c0.926-0.037,1.771,0.146,2.534,0.549c0.828,0.433,1.473,1.012,1.937,1.737
			c0.463,0.725,0.714,1.577,0.753,2.554c0.059,1.513-0.377,2.765-1.309,3.756c-0.932,0.992-2.149,1.518-3.652,1.577
			c-1.677,0.066-3.028-0.455-4.052-1.562c-0.837-0.903-1.28-2.006-1.332-3.307c-0.038-0.967,0.153-1.844,0.574-2.63
			c0.42-0.786,1.036-1.418,1.848-1.897S82.009,22.589,82.998,22.55z M83.025,23.311c-0.758,0.03-1.401,0.224-1.932,0.581
			c-0.531,0.357-0.946,0.869-1.248,1.535c-0.302,0.666-0.435,1.478-0.396,2.436c0.036,0.916,0.228,1.686,0.576,2.31
			c0.348,0.624,0.8,1.094,1.357,1.411c0.557,0.317,1.175,0.462,1.855,0.436c0.674-0.027,1.265-0.216,1.771-0.568
			c0.506-0.351,0.915-0.89,1.227-1.615c0.312-0.725,0.45-1.522,0.416-2.391c-0.035-0.883-0.236-1.685-0.605-2.404
			c-0.316-0.618-0.72-1.067-1.212-1.349S83.738,23.283,83.025,23.311z"/>
		<path fill="#231F20" d="M90.287,22.756l3.871,0.308l-0.047,0.59l-0.297-0.023c-0.28-0.022-0.486-0.001-0.618,0.064
			s-0.232,0.166-0.301,0.3c-0.069,0.135-0.12,0.402-0.151,0.803l-0.502,6.319c-0.025,0.319-0.012,0.547,0.041,0.686
			c0.052,0.139,0.132,0.243,0.241,0.313c0.108,0.07,0.31,0.117,0.605,0.14l0.297,0.024l-0.047,0.591l-3.871-0.308l0.047-0.591
			l0.319,0.026c0.285,0.022,0.489,0.007,0.613-0.047c0.123-0.054,0.216-0.139,0.279-0.253c0.063-0.115,0.108-0.344,0.135-0.687
			l0.514-6.467c0.029-0.363,0.022-0.609-0.021-0.739c-0.043-0.129-0.122-0.228-0.235-0.296s-0.313-0.114-0.598-0.137l-0.319-0.025
			L90.287,22.756z"/>
		<path fill="#231F20" d="M102.949,24.48l0.516,0.097l0.202,3.124l-0.701,0.069c-0.261-0.915-0.694-1.678-1.298-2.29
			c-0.495-0.509-1.09-0.83-1.785-0.96c-0.419-0.079-0.809-0.077-1.169,0.006c-0.36,0.083-0.646,0.223-0.855,0.423
			c-0.21,0.199-0.337,0.419-0.383,0.658c-0.041,0.217-0.016,0.439,0.074,0.666c0.091,0.228,0.252,0.442,0.486,0.646
			c0.233,0.204,0.631,0.447,1.195,0.73l1.764,0.886c0.216,0.108,0.525,0.295,0.925,0.562c0.401,0.267,0.704,0.526,0.908,0.778
			c0.204,0.251,0.348,0.539,0.43,0.863c0.082,0.324,0.09,0.66,0.025,1.006c-0.145,0.768-0.618,1.374-1.419,1.819
			s-1.752,0.564-2.853,0.357c-0.567-0.107-1.059-0.282-1.477-0.525c-0.418-0.244-0.848-0.618-1.291-1.123l-0.502,0.86l-0.501-0.094
			l-0.01-3.597l0.689-0.006c0.123,0.688,0.342,1.294,0.661,1.818s0.7,0.946,1.145,1.267c0.445,0.321,0.921,0.528,1.426,0.624
			c0.686,0.129,1.324,0.041,1.914-0.264c0.492-0.256,0.781-0.613,0.868-1.071c0.079-0.42-0.011-0.794-0.271-1.12
			c-0.264-0.327-0.779-0.682-1.545-1.066l-1.693-0.835c-0.947-0.47-1.584-0.963-1.911-1.479c-0.328-0.516-0.438-1.058-0.331-1.626
			c0.084-0.444,0.294-0.829,0.632-1.155c0.337-0.327,0.807-0.564,1.407-0.715c0.6-0.15,1.229-0.164,1.887-0.04
			c0.553,0.104,1.064,0.296,1.534,0.576c0.333,0.197,0.627,0.443,0.882,0.74L102.949,24.48z"/>
		<path fill="#231F20" d="M112.459,26.69l4.586,2.076c1.12,0.508,1.866,0.905,2.237,1.19c0.548,0.421,0.917,0.899,1.104,1.436
			c0.188,0.537,0.163,1.069-0.076,1.596c-0.172,0.38-0.421,0.677-0.746,0.893c-0.326,0.216-0.717,0.35-1.173,0.401
			c-0.293,0.034-0.66,0.01-1.101-0.071c0.46,0.316,0.793,0.596,0.999,0.84c0.31,0.367,0.501,0.777,0.573,1.229
			c0.072,0.453,0.009,0.899-0.189,1.337c-0.192,0.425-0.483,0.767-0.873,1.027c-0.39,0.26-0.844,0.413-1.361,0.459
			c-0.518,0.046-1.065-0.022-1.644-0.206c-0.578-0.184-1.156-0.407-1.737-0.67l-4.832-2.187l0.255-0.563l0.325,0.147
			c0.313,0.142,0.549,0.192,0.706,0.15c0.225-0.054,0.405-0.231,0.541-0.531l2.94-6.496c0.139-0.306,0.208-0.527,0.208-0.662
			c0-0.135-0.039-0.251-0.118-0.346c-0.079-0.096-0.264-0.209-0.554-0.34l-0.325-0.147L112.459,26.69z M112.789,32.639l-1.39,3.07
			c-0.14,0.309-0.209,0.498-0.208,0.569c0,0.097,0.049,0.186,0.146,0.268c0.068,0.058,0.284,0.169,0.648,0.334l0.94,0.425
			c0.931,0.422,1.619,0.672,2.063,0.752c0.444,0.08,0.88,0.022,1.308-0.175c0.428-0.197,0.745-0.523,0.952-0.979
			c0.174-0.384,0.214-0.777,0.121-1.177s-0.312-0.758-0.656-1.072c-0.343-0.314-1.029-0.704-2.057-1.169L112.789,32.639z
			 M114.631,28.57l-1.551,3.426l1.765,0.799c0.826,0.374,1.408,0.592,1.747,0.654c0.53,0.095,0.986,0.054,1.37-0.123
			c0.383-0.176,0.677-0.493,0.884-0.949c0.174-0.384,0.205-0.756,0.093-1.117c-0.113-0.36-0.338-0.674-0.679-0.941
			c-0.223-0.171-0.727-0.434-1.511-0.789L114.631,28.57z"/>
		<path fill="#231F20" d="M127.448,34.597l1.018,0.71l-2.211,8.923c-0.114,0.446-0.144,0.773-0.088,0.982
			c0.055,0.208,0.196,0.392,0.424,0.551l0.137,0.096l-0.354,0.507l-3.089-2.156l0.354-0.507c0.105,0.061,0.205,0.125,0.301,0.192
			c0.199,0.139,0.344,0.21,0.434,0.213c0.173,0.007,0.301-0.047,0.382-0.164c0.059-0.084,0.146-0.332,0.26-0.743l0.563-2.03
			l-3.144-2.195l-1.949,1.35c-0.203,0.14-0.329,0.246-0.38,0.318c-0.056,0.081-0.083,0.166-0.082,0.257s0.029,0.177,0.083,0.26
			c0.054,0.082,0.164,0.181,0.33,0.297c0.112,0.078,0.202,0.144,0.27,0.197l-0.354,0.507l-2.594-1.811l0.354-0.507
			c0.241,0.168,0.43,0.266,0.568,0.293c0.138,0.028,0.282,0.018,0.433-0.03c0.15-0.047,0.405-0.191,0.764-0.431L127.448,34.597z
			 M123.067,38.539l2.68,1.871l1.192-4.553L123.067,38.539z"/>
		<path fill="#231F20" d="M138.918,44.535l0.384,0.39l-1.688,2.796l-0.642-0.359c0.321-0.939,0.405-1.851,0.251-2.734
			c-0.121-0.732-0.44-1.36-0.957-1.886c-0.312-0.317-0.647-0.547-1.005-0.691s-0.686-0.193-0.984-0.147
			c-0.299,0.046-0.539,0.158-0.72,0.336c-0.165,0.162-0.275,0.367-0.333,0.615c-0.058,0.249-0.047,0.53,0.031,0.843
			c0.079,0.313,0.275,0.759,0.589,1.338l0.983,1.81c0.121,0.221,0.274,0.566,0.458,1.033s0.289,0.87,0.314,1.207
			c0.025,0.336-0.024,0.668-0.147,0.995s-0.315,0.619-0.578,0.877c-0.581,0.571-1.347,0.809-2.299,0.713s-1.838-0.561-2.657-1.394
			c-0.422-0.429-0.74-0.873-0.952-1.33c-0.213-0.458-0.359-1.035-0.438-1.73l-0.942,0.438l-0.374-0.38l2.134-3.087l0.595,0.405
			c-0.306,0.662-0.478,1.312-0.518,1.951c-0.04,0.638,0.036,1.228,0.227,1.768s0.474,1,0.85,1.383
			c0.511,0.52,1.11,0.824,1.797,0.915c0.575,0.073,1.035-0.06,1.381-0.401c0.318-0.313,0.463-0.687,0.436-1.12
			c-0.031-0.438-0.261-1.049-0.689-1.834l-0.952-1.724c-0.532-0.967-0.784-1.77-0.757-2.406c0.027-0.637,0.256-1.167,0.686-1.59
			c0.336-0.33,0.746-0.534,1.229-0.613c0.484-0.079,1.027-0.003,1.632,0.226c0.603,0.229,1.15,0.593,1.64,1.09
			c0.411,0.418,0.735,0.888,0.971,1.407c0.168,0.367,0.273,0.753,0.315,1.16L138.918,44.535z"/>
		<path fill="#231F20" d="M142.035,48.067l2.255,3.412l-0.516,0.341l-0.159-0.241c-0.184-0.278-0.346-0.453-0.487-0.524
			c-0.141-0.07-0.296-0.083-0.466-0.038c-0.127,0.029-0.308,0.122-0.542,0.276l-3.25,2.147l5.604,1.066
			c0.297,0.052,0.483,0.076,0.558,0.072c0.075-0.004,0.142-0.025,0.2-0.063c0.075-0.049,0.107-0.124,0.095-0.222
			c-0.011-0.098-0.098-0.27-0.26-0.515l-0.134-0.202l0.516-0.341l2.087,3.158l-0.516,0.341c-0.16-0.251-0.336-0.459-0.528-0.624
			c-0.191-0.164-0.37-0.277-0.535-0.338c-0.356-0.135-0.625-0.22-0.81-0.256l-3.912-0.818l-1.693,5.003
			c-0.153,0.453-0.241,0.79-0.263,1.011c-0.022,0.22-0.006,0.422,0.047,0.605c0.053,0.183,0.186,0.435,0.397,0.755l-0.515,0.341
			l-2.479-3.75l0.516-0.341l0.146,0.222c0.164,0.249,0.268,0.393,0.311,0.431c0.064,0.061,0.134,0.096,0.211,0.106
			s0.142-0.002,0.195-0.038c0.106-0.07,0.252-0.376,0.439-0.918l1.312-3.714l-1.867-0.391l-1.639,1.083
			c-0.283,0.187-0.455,0.343-0.519,0.469c-0.063,0.127-0.079,0.268-0.047,0.423c0.027,0.122,0.178,0.389,0.451,0.802l-0.516,0.341
			l-2.254-3.412l0.516-0.34l0.176,0.266c0.176,0.266,0.321,0.43,0.437,0.494c0.116,0.063,0.25,0.081,0.405,0.055
			c0.154-0.026,0.384-0.14,0.689-0.341l5.654-3.736c0.299-0.197,0.486-0.357,0.561-0.479c0.075-0.123,0.103-0.247,0.084-0.374
			c-0.02-0.127-0.134-0.348-0.343-0.665l-0.129-0.196L142.035,48.067z"/>
		<path fill="#231F20" d="M148.772,58.821l3.269,7.959l-2.12,1.946l-0.479-0.525c0.345-0.322,0.597-0.623,0.755-0.902
			c0.159-0.278,0.268-0.579,0.326-0.901c0.059-0.322,0.062-0.625,0.009-0.907c-0.052-0.282-0.218-0.763-0.497-1.442l-0.976-2.375
			l-3.478,1.429l0.486,1.182c0.179,0.436,0.386,0.736,0.62,0.901c0.234,0.164,0.476,0.245,0.724,0.241
			c0.186,0,0.477-0.081,0.871-0.243l0.156-0.064l0.283,0.688l-4.166,1.711l-0.283-0.688l0.361-0.148
			c0.317-0.13,0.537-0.249,0.657-0.356c0.12-0.107,0.216-0.251,0.287-0.434c0.071-0.183,0.098-0.36,0.081-0.53
			c-0.018-0.171-0.101-0.44-0.251-0.806l-0.485-1.182l-3.085,1.267c-0.322,0.132-0.511,0.228-0.569,0.287
			c-0.058,0.06-0.088,0.13-0.091,0.214s0.06,0.282,0.189,0.596l0.604,1.469c0.336,0.82,0.695,1.422,1.076,1.805
			c0.38,0.383,0.838,0.669,1.376,0.859c0.42,0.15,0.963,0.236,1.627,0.258l0.044,0.728l-3.424,0.127l-3.393-8.261l0.572-0.235
			l0.115,0.281c0.135,0.327,0.238,0.522,0.312,0.585c0.109,0.097,0.242,0.152,0.399,0.164c0.109,0.01,0.315-0.047,0.617-0.171
			l6.541-2.687c0.298-0.122,0.484-0.234,0.56-0.336c0.076-0.102,0.11-0.239,0.104-0.412c-0.001-0.092-0.099-0.377-0.295-0.854
			L148.772,58.821z"/>
		<path fill="#231F20" d="M153.609,70.601l0.119,0.518l-0.32,0.151l1.453,6.331l0.351-0.019l0.124,0.54l-2.691,1.762l-0.382-0.613
			c0.71-0.5,1.175-1.007,1.392-1.519c0.217-0.511,0.247-1.11,0.09-1.795c-0.065-0.286-0.115-0.454-0.149-0.503
			c-0.034-0.049-0.08-0.079-0.137-0.089c-0.058-0.01-0.228,0.017-0.51,0.082l-6.942,1.593c-0.33,0.076-0.548,0.145-0.654,0.208
			c-0.106,0.063-0.183,0.136-0.229,0.22c-0.046,0.083-0.069,0.188-0.067,0.315c0.001,0.126,0.047,0.4,0.139,0.82l-0.603,0.138
			l-0.913-3.979l0.602-0.138c0.106,0.438,0.182,0.703,0.229,0.796c0.087,0.161,0.208,0.264,0.359,0.307
			c0.152,0.043,0.408,0.023,0.77-0.06l7.086-1.626c0.22-0.05,0.351-0.092,0.394-0.125c0.043-0.033,0.07-0.083,0.083-0.151
			c0.012-0.068-0.004-0.198-0.048-0.39c-0.124-0.537-0.289-0.952-0.497-1.244s-0.505-0.544-0.891-0.757
			c-0.386-0.213-0.858-0.361-1.416-0.446l0.077-0.719L153.609,70.601z"/>
		<g>
			<path fill-rule="evenodd" clip-rule="evenodd" d="M72.884,56.112c-5.175,4.249-9.285,10.891-11.839,17.758
				c-4.3-1.138-8.453-2.688-14.498-2.08c3.228-4.315,8.989-8.216,12.699-10.349c3.926-2.257,7.89-3.947,12.627-5.107
				C72.21,56.333,72.547,56.112,72.884,56.112z"/>
			<path fill-rule="evenodd" clip-rule="evenodd" d="M123.939,71.865c-9.267-0.082-16.023,2.891-20.791,5.254
				c-5.384,2.668-13.892-0.344-22.036-3.556c7.605-5.944,26.801-10.133,37.769-6.46C120.097,67.509,123.272,70.851,123.939,71.865z"
				/>
			<path fill-rule="evenodd" clip-rule="evenodd" d="M44.536,74.116c0.723,4.324,1.134,9.858,1.577,14.004
				c-3.842,0.871-7.477,2.333-10.828,3.975C37.278,85.677,40.602,78.879,44.536,74.116z"/>
			<path fill-rule="evenodd" clip-rule="evenodd" d="M125.803,73.757c6.418,7.716,10.882,17.417,11.353,32.646
				c-5.204-3.379-11.512-7.448-18.122-9.422C121.664,90.356,126.434,83.636,125.803,73.757z"/>
			<path fill-rule="evenodd" clip-rule="evenodd" d="M46.113,89.598c0.054,17.156-9.415,16.565-9.525,35.031
				c-3.309-7.774-4.431-20.829-1.855-30.021C37.946,92.268,42.048,91.087,46.113,89.598z"/>
			<path fill-rule="evenodd" clip-rule="evenodd" d="M47.912,89.647c2.319,0.71,5.51,6.953,5.148,9.032
				c-1.36,6.056-1.835,10.886-0.594,17.216c1.13,5.768,5.472,10.314,5.485,16.244c-4.433,1.963-9.184,4.715-13.292,7.002
				c-2.014-2.998-4.067-5.876-5.58-8.888C36.957,109.56,50.216,104.132,47.912,89.647z"/>
			<path fill-rule="evenodd" clip-rule="evenodd" d="M117.679,98.112c7.681,2.199,14.166,6.687,19.353,11.26
				c-0.984,12.232-4.196,20.601-11.112,29.423c-5.088-2.149-10.312-5.49-15.755-7.285c1.751-4.931,9.055-8.596,10.323-14.632
				C121.874,110.289,118.801,103.886,117.679,98.112z"/>
			<path fill-rule="evenodd" clip-rule="evenodd" d="M59.13,136.262c-1.527,2.343-8.492,5.771-9.986,7.643
				c-1.596-1.362-3.203-3.328-4.36-4.8C48.21,138.323,56.192,135.782,59.13,136.262z"/>
			<path fill-rule="evenodd" clip-rule="evenodd" d="M125.734,139.202c-0.46,0.711-2.229,2.478-4.084,4.357
				c-1.984-1.55-8.944-4.426-10.927-6.978C112.703,136.109,123.094,138.694,125.734,139.202z"/>
			<path fill-rule="evenodd" clip-rule="evenodd" d="M60.256,140.902c1.75,5.484,5.35,10.762,8.839,15.013
				c-3.516-1-12.266-4.932-19.986-11.632C52.738,143.872,57.397,142.083,60.256,140.902z"/>
			<path fill-rule="evenodd" clip-rule="evenodd" d="M107.187,140.422c2.279,0,9.755,2.946,13.577,4.082
				c-1.157,0.918-1.191,1.052-2.021,1.689C118.742,146.193,108.137,142.008,107.187,140.422z"/>
			<path fill-rule="evenodd" clip-rule="evenodd" d="M62.844,75.322c3.042-8.902,9.097-16.566,17.111-20.501
				c15.704-1.009,26.742,3.311,35.418,9.439c-8.091-1.285-20.742,0.745-26.832,3.174C81.337,70.309,72.641,80.137,62.844,75.322z"/>
			<path fill-rule="evenodd" clip-rule="evenodd" stroke="#231F20" stroke-miterlimit="10" d="M62.4,140.902
				c3.196,0.508,5.234,2.835,9.473,2.301c3.649,9.243,22.987,8.842,26.771,0c3.628,0.26,4.648-1.2,6.691-2.522
				c3.245,2.435,7.509,5.125,11.663,6.87c-6.23,5.537-16.808,9.94-28.853,10.829c-7.11,0.525-10.835-0.419-13.113-0.962
				S64.056,147.661,62.4,140.902z"/>
		</g>
		<path fill-rule="evenodd" clip-rule="evenodd" fill="#45B77B" d="M44.281,71.537c-0.052,23.846,4.046,18.973,7.48,27.39
			c-0.383,2.767,0.176,2.153-2.404,9.604c-2.58,7.453,2.837,13.539,2.837,13.539l4.208,4.657l2.761,3.987l-16.593,9.189
			l16.059-3.319l-13.181,9.303l17.618-4.762c0,0,4.534,2.779,8.743,2.654c2.659,8.533,22.152,9.197,26.804,0.222
			c4.486,0.275,7.643-2.655,7.643-2.655l19.899,4.984l-14.694-9.501l18.054,3.52l-18.497-9.525l5.949-7.088
			c0,0,6.124-5.316,4.13-13.568c-0.543-2.076-2.547-11.242-2.547-11.242s10.079-13.18,7.85-27.8
			c-4.204-0.535-15.492-0.665-23.91,5.648c-5.165-2.229-20.414-6.814-34.501-0.332C63.213,74.075,53.09,68.8,44.281,71.537z"/>
		<path fill-rule="evenodd" clip-rule="evenodd" fill="#231F20" d="M116.375,98.719c0,0,10.311-12.324,8.226-25.995
			c-3.931-0.5-14.043,0.043-21.914,5.946c-4.83-2.085-21.746-6.372-34.918-0.311c-4.464-2.214-13.486-8.253-21.723-5.695
			c-0.048,22.296,4.712,17.182,7.216,25.167c-0.358,2.587,0.386,3.785-2.026,10.753c-2.413,6.968,2.431,11.995,2.431,11.995
			l4.377,5.019l3.467,4.614c0,0-0.359,12.895,11.16,11.109c4.78,10.129,20.535,10.37,25.063,0.208
			c12.083,1.995,11.156-11.213,11.156-11.213l6.227-7.735c0,0,5.504-4.971,3.64-12.687
			C118.25,107.955,116.375,98.719,116.375,98.719z M121.687,74.818c0,0-0.221,12.553-6.719,20.823l3.027-17.057
			c0,0-9.304,1.92-9.894,4.652l-2.88-2.954C109.282,76.221,121.687,74.818,121.687,74.818z M50.88,75.04
			c0,0,0.601-0.147,2.615,0.193c3.661,0.619,8.69,2.78,14.215,6.305c23.038-11.52,38.677,6.225,37.762,5.492
			c-11.678-9.368-25.653-10.55-37.91-3.203C59.736,76.886,50.88,75.04,50.88,75.04z M95.178,110.169v-0.293
			c0,0,2.797-4.913,9.304-6.574C104.814,113.381,95.178,110.169,95.178,110.169z M87.979,121.3c0,0-2.271,2.456-5.205,0
			c-0.91-2.883,0.997-4.43-0.443-6.867c-1.44-2.437,0.443-1.551,0.443-1.551c2.436,1.883,5.205,0,5.205,0s1.772-0.222,0.443,1.329
			C87.093,115.762,88.736,119.602,87.979,121.3z M75.353,110.058c-4.139,0.857-9.969,0.056-9.359-6.756c0,0,6.371,2.184,9.387,6.376
			L75.353,110.058z M91.796,132.514l-1.463-1.116c-4.292,2.714-6.101,2.529-10.153,0.443c0,0-0.849,0.768-1.006,0.813
			c-0.887-0.933-1.903-2.419-1.903-2.419l0.564-0.849l4.228,0.369c2.123,1.68,5.039,1.348,6.424,0.092l4.393-0.517l0.609,0.85
			L91.796,132.514z M99.886,114.395l2.824,3.535c0,0-6.019-3.643-7.646-5.153c-0.34-0.315-0.276-0.538-0.162-0.615
			c11.187,3.268,11.686-6.258,11.686-6.258h0.941c0,0,0.115,3.714-0.443,6.59C105.812,113.879,99.886,114.395,99.886,114.395z
			 M117.053,114.433c-0.163,3.139-9.248,13.956-9.248,13.956s-1.305-0.36-0.603-1.299c2.106-2.816,7.652-10.396,7.691-13.581
			c0.055-4.614-1.883-12.921-1.883-12.921s-0.313-1.443,0.582-0.426C115.087,103.08,116.943,107.621,117.053,114.433z"/>
		<path fill-rule="evenodd" clip-rule="evenodd" fill="#777377" d="M90.142,111.187c0.606-2.033,4.741-6.315,14.083-10.746
			c-7.718,0.147-18.762,7.827-18.762,7.827s-12.87-8.053-12.579-10.155c0.291-2.102,5.607-6.018,5.607-6.018
			c-2.954-1.253-11.519,2.08-11.519,2.08s5.833-21.793,31.381-11.751c-15.635-7.31-27.182-0.878-30.791,1.181
			c-11.076-9.156-18.455-8.713-18.455-8.713s1.176,16.688,7.969,22.299l-3.101,12.15c0,0-2.067,5.866,2.067,9.854
			c4.135,3.988,4.578,5.434,4.578,5.434l2.222,2.172c-0.929-5.805-4.892-9.377-4.892-9.377s-2.965-3.551,0-9.75
			c2.965-6.199,3.26-12.992,2.965-15.354c-0.295-2.363-1.816-1.477-1.816-1.477c0.782-4.578-6.159-11.519-6.159-11.519
			s9.747,2.363,11.371,6.646c1.624,4.283-2.806,8.861,0,12.848s11.814,5.612,15.949,12.242l-1.329,0.129
			c2.067,7.566-2.363,7.821-1.034,13.251c3.6,4.228,12.543,4.005,15.242-0.367c0.68-5.18-3.032-5.351-1.36-12.885H90.142z
			 M88.422,114.211c-1.329,1.55,0.314,5.39-0.443,7.088c0,0-2.271,2.456-5.205,0c-0.91-2.883,0.997-4.43-0.443-6.867
			c-1.44-2.437,0.443-1.551,0.443-1.551c2.436,1.883,5.205,0,5.205,0S89.751,112.661,88.422,114.211z"/>
		<path fill-rule="evenodd" clip-rule="evenodd" fill="#777377" d="M63.871,105.609h-1.027c0,0-0.389,7.359,2.061,7.827
			c2.449,0.467,5.021,0.958,5.021,0.958l-2.215,3.324l7.532-5.169c0,0,2.067-1.182-4.135-0.147
			C64.905,113.437,63.871,105.609,63.871,105.609z"/>
		<path fill-rule="evenodd" clip-rule="evenodd" fill="#777377" d="M75.021,88.183c0,0,8.86-9.968,20.712,0c0,0-6.646-1.772-7.421,0
			s-5.316,1.661-5.759,0C82.109,86.521,75.021,88.183,75.021,88.183z"/>
		<g>
			<path fill-rule="evenodd" clip-rule="evenodd" fill="#777377" d="M90.333,131.397c-4.292,2.714-6.101,2.529-10.153,0.443
				l-1.006,0.813c2.03,4.596,9.783,4.596,12.622-0.159L90.333,131.397z"/>
		</g>
		<path fill-rule="evenodd" clip-rule="evenodd" fill="#777377" d="M69.889,129.497c0,0,5.214,2.178,7.536,5.759
			c2.322,3.582,12.512,3.877,15.576,0c3.064-3.876,7.384-5.611,7.384-5.611s4.615-2.327,5.538,1.956
			c0.923,4.283-6.128,8.822-6.128,8.822H71.107c-3.95-1.659-6.646-5.704-6.646-5.704S62.209,126.838,69.889,129.497z"/>
		<path fill-rule="evenodd" clip-rule="evenodd" fill="#444446" d="M75.668,101.396l9.795,6.872c0,0,5.673-4.218,13.577-6.872
			c0,0-12.984,7.315-13.554,8.422L75.668,101.396z"/>
		<path fill-rule="evenodd" clip-rule="evenodd" fill="#444446" d="M79.397,113.509c0,0,0.579,2.963-1.219,6.013
			c-0.417,0.56-1.165,3.366-0.471,4.854c2.962,5.231,14.204,3.819,15.675-0.367c0.301-2.321-0.378-3.807-0.878-4.868
			c-1.274-2.578-1.07-5.632-1.07-5.632c-2.292,2.086,1.252,8.677-0.52,10.836c-2.215,2.049-7.889,2.892-10.91,0.055
			C77.753,120.916,81.666,114.267,79.397,113.509z"/>
		<path fill-rule="evenodd" clip-rule="evenodd" fill="#444446" d="M76.94,142.345h16.516
			C93.457,142.345,86.059,152.866,76.94,142.345z"/>
		<path fill-rule="evenodd" clip-rule="evenodd" fill="#444446" d="M64.703,129.973c0,0-3.527,5.947,6.183,10.449h29.129
			c0,0,4.827-3.363,5.773-6.683c0,0-2.348,3.254-5.855,4.99l-28.937-0.003C64.154,135.698,64.703,129.973,64.703,129.973z"/>
		
			<ellipse transform="matrix(0.9797 -0.2005 0.2005 0.9797 -25.2276 16.7614)" fill-rule="evenodd" clip-rule="evenodd" fill="#444446" cx="70.119" cy="132.902" rx="0.637" ry="1.301"/>
		
			<ellipse transform="matrix(0.9383 -0.3459 0.3459 0.9383 -42.6262 32.7995)" fill-rule="evenodd" clip-rule="evenodd" fill="#444446" cx="70.59" cy="135.837" rx="0.72" ry="1.302"/>
		
			<ellipse transform="matrix(-0.9797 -0.2005 0.2005 -0.9797 171.713 283.2972)" fill-rule="evenodd" clip-rule="evenodd" fill="#444446" cx="100.2" cy="132.955" rx="0.637" ry="1.301"/>
		
			<ellipse transform="matrix(-0.9386 -0.3449 0.3449 -0.9386 146.4749 297.8367)" fill-rule="evenodd" clip-rule="evenodd" fill="#444446" cx="99.729" cy="135.89" rx="0.72" ry="1.301"/>
		<path fill-rule="evenodd" clip-rule="evenodd" fill="#231F20" d="M69.926,131.933c0,0-10.744,0.554-20.047,5.205
			c0,0,13.265-3.731,20.047-3.177C69.926,133.961,70.922,133.483,69.926,131.933z"/>
		<path fill-rule="evenodd" clip-rule="evenodd" fill="#231F20" d="M70.311,134.842c0,0-10.479,2.437-18.817,8.653
			c0,0,12.4-6.008,19.174-6.658C70.668,136.837,71.565,136.192,70.311,134.842z"/>
		<path fill-rule="evenodd" clip-rule="evenodd" fill="#231F20" d="M100.34,131.933c0,0,10.744,0.554,20.047,5.205
			c0,0-13.265-3.731-20.047-3.177C100.34,133.961,99.343,133.483,100.34,131.933z"/>
		<path fill-rule="evenodd" clip-rule="evenodd" fill="#231F20" d="M99.955,134.842c0,0,10.478,2.437,18.817,8.653
			c0,0-12.401-6.008-19.174-6.658C99.598,136.837,98.7,136.192,99.955,134.842z"/>
	</g>
</g>
<g id="Calque_2" display="none">
	<g display="inline">
		<linearGradient id="SVGID_4_" gradientUnits="userSpaceOnUse" x1="45.6943" y1="64.5952" x2="124.6943" y2="64.5952">
			<stop  offset="0" style="stop-color:#81C99C"/>
			<stop  offset="0.3014" style="stop-color:#7EAE90"/>
			<stop  offset="0.9652" style="stop-color:#777678"/>
			<stop  offset="1" style="stop-color:#777377"/>
		</linearGradient>
		
			<rect x="45.694" y="59.116" fill="url(#SVGID_4_)" stroke="#231F20" stroke-width="2" stroke-miterlimit="10" width="79" height="10.959"/>
		<linearGradient id="SVGID_5_" gradientUnits="userSpaceOnUse" x1="45.6943" y1="86.0361" x2="124.6943" y2="86.0361">
			<stop  offset="0" style="stop-color:#81C99C"/>
			<stop  offset="0.3014" style="stop-color:#7EAE90"/>
			<stop  offset="0.9652" style="stop-color:#777678"/>
			<stop  offset="1" style="stop-color:#777377"/>
		</linearGradient>
		
			<rect x="45.694" y="80.556" fill="url(#SVGID_5_)" stroke="#231F20" stroke-width="2" stroke-miterlimit="10" width="79" height="10.96"/>
		<linearGradient id="SVGID_6_" gradientUnits="userSpaceOnUse" x1="45.6943" y1="107.9541" x2="124.6943" y2="107.9541">
			<stop  offset="0" style="stop-color:#81C99C"/>
			<stop  offset="0.3014" style="stop-color:#7EAE90"/>
			<stop  offset="0.9652" style="stop-color:#777678"/>
			<stop  offset="1" style="stop-color:#777377"/>
		</linearGradient>
		
			<rect x="45.694" y="102.474" fill="url(#SVGID_6_)" stroke="#231F20" stroke-width="2" stroke-miterlimit="10" width="79" height="10.96"/>
	</g>
</g>
</svg>
